<?xml version="1.0" encoding="utf-8"?>
<!-- Generator: Adobe Illustrator 27.5.0, SVG Export Plug-In . SVG Version: 6.00 Build 0)  -->
<svg version="1.1" xmlns="http://www.w3.org/2000/svg" xmlns:xlink="http://www.w3.org/1999/xlink" x="0px" y="0px"
	 viewBox="0 0 500 500" style="enable-background:new 0 0 500 500;" xml:space="preserve">
<g id="Background_Complete">
	<rect x="416.779" y="398.494" style="fill:#EBEBEB;" width="33.122" height="0.25"/>
	<rect x="322.527" y="401.208" style="fill:#EBEBEB;" width="8.693" height="0.25"/>
	<rect x="396.586" y="389.208" style="fill:#EBEBEB;" width="19.192" height="0.25"/>
	<rect x="52.459" y="390.888" style="fill:#EBEBEB;" width="43.193" height="0.25"/>
	<rect x="104.556" y="390.888" style="fill:#EBEBEB;" width="6.333" height="0.25"/>
	<rect x="131.471" y="395.111" style="fill:#EBEBEB;" width="93.676" height="0.25"/>
	<path style="fill:#EBEBEB;" d="M237.014,337.8H43.915c-3.147,0-5.708-2.561-5.708-5.708V60.66c0-3.147,2.561-5.708,5.708-5.708
		h193.099c3.146,0,5.707,2.561,5.707,5.708v271.432C242.721,335.239,240.16,337.8,237.014,337.8z M43.915,55.203
		c-3.01,0-5.458,2.448-5.458,5.458v271.432c0,3.01,2.448,5.458,5.458,5.458h193.099c3.009,0,5.457-2.448,5.457-5.458V60.66
		c0-3.009-2.448-5.458-5.457-5.458H43.915z"/>
	<path style="fill:#EBEBEB;" d="M453.31,337.8H260.212c-3.147,0-5.707-2.561-5.707-5.708V60.66c0-3.147,2.561-5.708,5.707-5.708
		H453.31c3.148,0,5.708,2.561,5.708,5.708v271.432C459.019,335.239,456.458,337.8,453.31,337.8z M260.212,55.203
		c-3.009,0-5.457,2.448-5.457,5.458v271.432c0,3.01,2.448,5.458,5.457,5.458H453.31c3.01,0,5.458-2.448,5.458-5.458V60.66
		c0-3.009-2.448-5.458-5.458-5.458H260.212z"/>
	<rect y="382.398" style="fill:#EBEBEB;" width="500" height="0.25"/>
	<g>
		<circle style="fill:#F0F0F0;" cx="250.592" cy="241.704" r="124.248"/>
		<g>
			<g>
				<path style="fill:#FFFFFF;" d="M250.945,368.721c-70.048,0-127.041-56.993-127.041-127.044
					c0-70.054,56.993-127.046,127.041-127.046v5.591c-66.969,0-121.45,54.484-121.45,121.455
					c0,66.969,54.482,121.453,121.45,121.453V368.721z"/>
			</g>
			<g>
				<g>
					<g>
						<path style="fill:#FFFFFF;" d="M250.945,368.721v-5.591c66.968,0,121.454-54.484,121.454-121.453
							c0-66.971-54.487-121.455-121.454-121.455v-5.591c70.054,0,127.046,56.993,127.046,127.046
							C377.99,311.728,320.998,368.721,250.945,368.721z"/>
					</g>
					<g>
						<g>
							<path style="fill:#FFFFFF;" d="M315.865,241.705h-5.591c0-41.178-20.896-96.27-60.837-121.895l3.014-4.706
								C294.085,141.812,315.865,199.009,315.865,241.705z"/>
						</g>
						<g>
							<path style="fill:#FFFFFF;" d="M252.451,364.514l-3.014-4.707c39.941-25.624,60.837-80.717,60.837-121.894h5.591
								C315.865,280.608,294.085,337.806,252.451,364.514z"/>
						</g>
					</g>
					<g>
						<g>
							<path style="fill:#FFFFFF;" d="M191.62,241.677h-5.591c0-42.695,21.78-99.89,63.403-126.604l3.025,4.707
								C212.516,145.407,191.62,200.502,191.62,241.677z"/>
						</g>
						<g>
							<path style="fill:#FFFFFF;" d="M249.432,364.487c-41.623-26.714-63.403-83.909-63.403-126.601h5.591
								c0,41.174,20.896,96.268,60.837,121.895L249.432,364.487z"/>
						</g>
					</g>
					<g>
						<rect x="248.149" y="117.426" style="fill:#FFFFFF;" width="5.591" height="248.499"/>
					</g>
				</g>
			</g>
			<g>
				<g>
					<rect x="145.777" y="172.697" style="fill:#FFFFFF;" width="210.341" height="5.591"/>
				</g>
				<g>
					<rect x="126.754" y="240.997" style="fill:#FFFFFF;" width="248.387" height="5.592"/>
				</g>
				<g>
					<rect x="148.556" y="309.241" style="fill:#FFFFFF;" width="204.782" height="5.591"/>
				</g>
			</g>
		</g>
	</g>
	<g>
		<g>
			<path style="fill:#F0F0F0;" d="M397.119,329.901c4.28-4.413,11.353-4.522,15.767-0.242c4.414,4.28,4.522,11.354,0.242,15.767
				c-4.281,4.414-11.354,4.522-15.768,0.242S392.839,334.314,397.119,329.901z M408.874,341.301
				c2.006-2.068,1.955-5.382-0.113-7.388c-2.068-2.006-5.382-1.955-7.388,0.113c-2.006,2.068-1.955,5.383,0.113,7.388
				C403.554,343.42,406.868,343.369,408.874,341.301z"/>
		</g>
		<g>
			<g>
				
					<rect x="417.228" y="337.643" transform="matrix(0.6962 -0.7179 0.7179 0.6962 -124.749 407.7434)" style="fill:#F0F0F0;" width="4.232" height="27.221"/>
			</g>
			<g>
				<g>
					
						<rect x="424.324" y="360.673" transform="matrix(0.6962 -0.7179 0.7179 0.6962 -130.3099 417.6765)" style="fill:#F0F0F0;" width="7.946" height="4.232"/>
				</g>
				<g>
					
						<rect x="420.487" y="357.061" transform="matrix(0.6962 -0.7178 0.7178 0.6962 -128.9562 413.6432)" style="fill:#F0F0F0;" width="7.471" height="4.232"/>
				</g>
				<g>
					
						<rect x="415.115" y="352.07" transform="matrix(0.6962 -0.7178 0.7178 0.6962 -127.1491 407.9333)" style="fill:#F0F0F0;" width="6.522" height="4.232"/>
				</g>
			</g>
		</g>
	</g>
	<g>
		<g>
			<path style="fill:#F0F0F0;" d="M48.739,93.315c-1.104,0-2-0.896-2-2c0-16.477,13.405-29.882,29.882-29.882c1.104,0,2,0.896,2,2
				s-0.896,2-2,2c-14.271,0-25.882,11.61-25.882,25.882C50.739,92.42,49.843,93.315,48.739,93.315z"/>
		</g>
		<g>
			<path style="fill:#F0F0F0;" d="M61.008,91.277c-1.104,0-2-0.896-2-2c0-9.855,8.018-17.873,17.873-17.873c1.104,0,2,0.896,2,2
				c0,1.104-0.896,2-2,2c-7.649,0-13.873,6.223-13.873,13.873C63.008,90.381,62.112,91.277,61.008,91.277z"/>
		</g>
		<g>
			<path style="fill:#F0F0F0;" d="M71.323,91.894c-1.104,0-2-0.896-2-2c0-5.479,4.458-9.936,9.937-9.936c1.104,0,2,0.896,2,2
				s-0.896,2-2,2c-3.273,0-5.937,2.663-5.937,5.936C73.323,90.998,72.427,91.894,71.323,91.894z"/>
		</g>
	</g>
	<path style="fill:#EBEBEB;" d="M95.104,330.201l1.363,23.276c-0.404,7.582-13.312,14.481-13.312,14.481
		s-13.743-5.036-15.198-12.488l-1.905-23.239l13.915-5.684L95.104,330.201z"/>
	<g>
		<g>
			<g>
				<g>
					<path style="fill:#F0F0F0;" d="M446.129,70.837l0.836,9.555c0.076,0.861-0.562,1.62-1.423,1.696
						c-0.861,0.075-1.62-0.562-1.695-1.423l-0.836-9.555c-0.27-3.086-3-5.378-6.086-5.108l-3.418,0.299
						c-3.086,0.27-5.376,3.002-5.106,6.087l0.751,8.59l-3.118,0.273l-0.751-8.59c-0.421-4.806,3.148-9.059,7.952-9.479l3.418-0.299
						C441.456,62.463,445.708,66.031,446.129,70.837z"/>
				</g>
				<g style="opacity:0.5;enable-background:new    ;">
					<path style="fill:#F0F0F0;" d="M446.129,70.837l0.836,9.555c0.076,0.861-0.562,1.62-1.423,1.696
						c-0.861,0.075-1.62-0.562-1.695-1.423l-0.836-9.555c-0.27-3.086-3-5.378-6.086-5.108l-3.418,0.299
						c-3.086,0.27-5.376,3.002-5.106,6.087l0.751,8.59l-3.118,0.273l-0.751-8.59c-0.421-4.806,3.148-9.059,7.952-9.479l3.418-0.299
						C441.456,62.463,445.708,66.031,446.129,70.837z"/>
				</g>
				<g>
					<g>
						<path style="fill:#F0F0F0;" d="M447.965,79.952l1.629,18.616c0.103,1.178-0.766,2.214-1.945,2.317l-18.616,1.629
							c-1.177,0.103-2.215-0.766-2.317-1.945l-1.629-18.616c-0.067-0.761,0.275-1.464,0.842-1.893
							c0.31-0.235,0.687-0.388,1.103-0.425l18.616-1.629c0.404-0.035,0.79,0.045,1.127,0.209
							C447.426,78.536,447.897,79.177,447.965,79.952z"/>
					</g>
				</g>
			</g>
		</g>
	</g>
</g>
<g id="Background_Simple" style="display:none;">
	<g style="display:inline;">
		<path style="fill:#407BFF;" d="M324.158,155.5c-19.751-17.823-46.451-34.077-77.734-35.274
			c-35.364-1.354-66.231,16.991-86.054,37.916c-30.321,32.006-43.241,71.566-44.135,110.68
			c-0.726,31.763,6.702,64.798,31.141,91.538c24.438,26.74,68.515,45.769,111.949,41.5c29.628-2.912,55.628-16.032,74.954-32.343
			c29.011-24.486,50.249-53,50.791-85.703c0.491-29.563-8.319-59.303-25.375-86.403C350.295,182.477,338.38,168.335,324.158,155.5z"
			/>
		<path style="opacity:0.9;fill:#FFFFFF;" d="M324.158,155.5c-19.751-17.823-46.451-34.077-77.734-35.274
			c-35.364-1.354-66.231,16.991-86.054,37.916c-30.321,32.006-43.241,71.566-44.135,110.68
			c-0.726,31.763,6.702,64.798,31.141,91.538c24.438,26.74,68.515,45.769,111.949,41.5c29.628-2.912,55.628-16.032,74.954-32.343
			c29.011-24.486,50.249-53,50.791-85.703c0.491-29.563-8.319-59.303-25.375-86.403C350.295,182.477,338.38,168.335,324.158,155.5z"
			/>
	</g>
</g>
<g id="Shadow">
	<ellipse id="_x3C_Path_x3E__359_" style="fill:#F5F5F5;" cx="250" cy="415.693" rx="193.889" ry="11.323"/>
</g>
<g id="Device_1">
	<g>
		<g>
			<defs>
				<path id="SVGID_1_" d="M112.41,296.618H47.139c-4.933,0-8.932-3.999-8.932-8.932v-65.272c0-4.933,3.999-8.932,8.932-8.932
					h65.272c4.933,0,8.932,3.999,8.932,8.932v65.272C121.342,292.619,117.343,296.618,112.41,296.618z"/>
			</defs>
			<clipPath id="SVGID_00000124135925435768226270000015116935993455202996_">
				<use xlink:href="#SVGID_1_"  style="overflow:visible;"/>
			</clipPath>
			<g style="clip-path:url(#SVGID_00000124135925435768226270000015116935993455202996_);">
				<g>
					<g>
						<g>
							<rect x="74.435" y="262.201" style="fill:#407BFF;" width="9.716" height="19.737"/>
							<rect x="74.435" y="262.201" style="fill:#407BFF;" width="9.716" height="19.737"/>
						</g>
						<g>
							<polygon style="fill:#407BFF;" points="88.537,282.292 70.131,282.292 74.62,278.339 84.048,278.339 							"/>
							<polygon style="fill:#407BFF;" points="88.537,282.292 70.131,282.292 74.62,278.339 84.048,278.339 							"/>
						</g>
					</g>
					<g>
						<rect x="74.377" y="269.817" style="opacity:0.2;" width="9.774" height="3.985"/>
						<path style="fill:#407BFF;" d="M46.546,228.7h66.085c0.692,0,1.254,0.561,1.254,1.254v40.524c0,0.692-0.561,1.254-1.254,1.254
							H46.546c-0.692,0-1.254-0.561-1.254-1.254v-40.524C45.292,229.261,45.853,228.7,46.546,228.7z"/>
						<path style="opacity:0.3;fill:#FFFFFF;" d="M46.546,228.7h66.085c0.692,0,1.254,0.561,1.254,1.254v40.524
							c0,0.692-0.561,1.254-1.254,1.254H46.546c-0.692,0-1.254-0.561-1.254-1.254v-40.524C45.292,229.261,45.853,228.7,46.546,228.7
							z"/>
						<path style="opacity:0.8;fill:#407BFF;" d="M111.323,233.183v33.911c0,0.991-0.804,1.795-1.795,1.795H49.579
							c-0.991,0-1.795-0.804-1.795-1.795v-33.911c0-0.991,0.804-1.795,1.795-1.795h59.949
							C110.519,231.388,111.323,232.192,111.323,233.183z"/>
						<path style="opacity:0.4;" d="M111.323,233.183v33.911c0,0.991-0.804,1.795-1.795,1.795H49.579
							c-0.991,0-1.795-0.804-1.795-1.795v-33.911c0-0.991,0.804-1.795,1.795-1.795h59.949
							C110.519,231.388,111.323,232.192,111.323,233.183z"/>
					</g>
				</g>
				<g>
					<polygon style="fill-rule:evenodd;clip-rule:evenodd;fill:#407BFF;" points="87.82,244.221 79.249,249.348 70.678,244.373 
						70.678,244.223 79.249,239.247 87.813,244.217 					"/>
					<polygon style="fill-rule:evenodd;clip-rule:evenodd;fill:#407BFF;" points="88.742,245.81 88.742,255.761 80.171,260.737 
						80.171,250.785 					"/>
					<polygon style="fill-rule:evenodd;clip-rule:evenodd;fill:#407BFF;" points="78.409,250.785 78.409,260.737 69.844,255.761 
						69.844,245.81 78.415,250.785 					"/>
					<g style="opacity:0.7;">
						<polygon style="fill-rule:evenodd;clip-rule:evenodd;fill:#FFFFFF;" points="87.82,244.221 79.249,249.348 70.678,244.373 
							70.678,244.223 79.249,239.247 87.813,244.217 						"/>
						<polygon style="fill-rule:evenodd;clip-rule:evenodd;fill:#FFFFFF;" points="88.742,245.81 88.742,255.761 80.171,260.737 
							80.171,250.785 						"/>
						<polygon style="fill-rule:evenodd;clip-rule:evenodd;fill:#FFFFFF;" points="78.409,250.785 78.409,260.737 69.844,255.761 
							69.844,245.81 78.415,250.785 						"/>
					</g>
				</g>
			</g>
			<use xlink:href="#SVGID_1_"  style="overflow:visible;fill:none;stroke:#407BFF;stroke-miterlimit:10;"/>
		</g>
		<g>
			<path style="fill:none;stroke:#407BFF;stroke-miterlimit:10;" d="M112.41,296.618H47.139c-4.933,0-8.932-3.999-8.932-8.932
				v-65.272c0-4.933,3.999-8.932,8.932-8.932h65.272c4.933,0,8.932,3.999,8.932,8.932v65.272
				C121.342,292.619,117.343,296.618,112.41,296.618z"/>
		</g>
		<g>
			<path style="fill:#407BFF;" d="M163.634,278.06c-0.115,0.32-0.3,0.608-0.544,0.846l25.777,12.764l0.439-0.898L163.634,278.06z"/>
			<path style="fill:#407BFF;" d="M128.42,260.624l-6.638-3.287l-0.439,0.898l6.726,3.331
				C128.12,261.228,128.24,260.908,128.42,260.624z"/>
			<path style="fill:#407BFF;" d="M149.615,271.119l-17.165-8.5c-0.083,0.329-0.226,0.638-0.437,0.9l17.581,8.706
				C149.523,271.86,149.533,271.481,149.615,271.119z"/>
			<path style="fill:#407BFF;" d="M153.627,273.105c-0.199,0.297-0.466,0.549-0.811,0.715l6.479,3.208
				c0.02-0.345,0.104-0.683,0.256-0.989L153.627,273.105z"/>
		</g>
	</g>
</g>
<g id="Device_2">
	<g>
		<g>
			<defs>
				<path id="SVGID_00000096059393199434188150000004663347500943684506_" d="M180.955,200.568H84.216
					c-4.933,0-8.932-3.999-8.932-8.932V94.897c0-4.933,3.999-8.932,8.932-8.932h96.739c4.933,0,8.932,3.999,8.932,8.932v96.739
					C189.887,196.569,185.888,200.568,180.955,200.568z"/>
			</defs>
			<clipPath id="SVGID_00000044873891348757924760000016846625649231326622_">
				<use xlink:href="#SVGID_00000096059393199434188150000004663347500943684506_"  style="overflow:visible;"/>
			</clipPath>
			<g style="clip-path:url(#SVGID_00000044873891348757924760000016846625649231326622_);">
				<g>
					<g>
						<g id="Group_1_">
							<polygon style="fill:#407BFF;" points="213.18,194.673 213.18,291.709 210.665,291.709 207.485,194.673 							"/>
							<g>
								<polygon style="fill:#407BFF;" points="183.412,197.846 183.412,287.743 180.89,287.743 177.717,197.846 								"/>
								<polygon style="opacity:0.5;" points="183.412,197.846 183.412,287.743 180.89,287.743 177.717,197.846 								"/>
							</g>
							<g>
								<rect x="30.921" y="191.754" style="fill:#407BFF;" width="196.403" height="4.068"/>
								<polygon style="fill:#407BFF;" points="85.65,194.673 85.65,291.709 83.128,291.709 79.955,194.673 								"/>
								<g>
									<polygon style="fill:#407BFF;" points="55.874,197.846 55.874,287.743 53.352,287.743 50.179,197.846 									"/>
									<polygon style="opacity:0.5;" points="55.874,197.846 55.874,287.743 53.352,287.743 50.179,197.846 									"/>
								</g>
								<g>
									<polygon style="fill:#407BFF;" points="214.964,200.176 44.231,200.176 37.647,195.823 221.548,195.823 									"/>
									<polygon style="opacity:0.5;" points="214.964,200.176 44.231,200.176 37.647,195.823 221.548,195.823 									"/>
								</g>
								<polygon style="fill:#407BFF;" points="190.901,200.176 79.955,200.176 75.638,195.823 190.901,195.823 								"/>
								<rect x="30.921" y="191.754" style="opacity:0.5;" width="36.785" height="4.068"/>
							</g>
						</g>
					</g>
					<g>
						<g>
							<path style="fill:#407BFF;" d="M155.927,178.29H82.232c-2.02,0-3.743-1.637-3.849-3.658l-2.421-46.197
								c-0.106-2.02,1.446-3.657,3.466-3.657h73.695c2.02,0,3.743,1.638,3.849,3.657l2.421,46.197
								C159.499,176.653,157.947,178.29,155.927,178.29z"/>
							<path style="opacity:0.4;fill:#FFFFFF;" d="M155.927,178.29H82.232c-2.02,0-3.743-1.637-3.849-3.658l-2.421-46.197
								c-0.106-2.02,1.446-3.657,3.466-3.657h73.695c2.02,0,3.743,1.638,3.849,3.657l2.421,46.197
								C159.499,176.653,157.947,178.29,155.927,178.29z"/>
						</g>
						<g>
							<polygon style="fill:#407BFF;" points="124.958,191.813 114.462,191.813 116.575,174.322 124.958,174.322 							"/>
							<polygon style="opacity:0.4;fill:#FFFFFF;" points="124.958,191.813 114.462,191.813 116.575,174.322 124.958,174.322 
															"/>
							<path style="fill:#407BFF;" d="M134.086,190.346h-19.446l-0.177,1.467h19.624c0.405,0,0.734-0.329,0.734-0.734
								S134.491,190.346,134.086,190.346z"/>
							<path style="opacity:0.3;fill:#FFFFFF;" d="M134.086,190.346h-19.446l-0.177,1.467h19.624c0.405,0,0.734-0.329,0.734-0.734
								S134.491,190.346,134.086,190.346z"/>
							<polygon style="opacity:0.1;" points="115.575,182.598 124.958,182.598 124.958,177.579 116.182,177.579 							"/>
						</g>
						<g>
							<path style="fill:#407BFF;" d="M156.55,178.29H82.855c-2.02,0-3.743-1.637-3.849-3.658l-2.421-46.197
								c-0.106-2.02,1.446-3.657,3.466-3.657h73.695c2.02,0,3.743,1.638,3.849,3.657l2.421,46.197
								C160.122,176.653,158.57,178.29,156.55,178.29z"/>
						</g>
						<path style="fill:#407BFF;" d="M82.757,176.421h73.695c0.986,0,1.746-0.802,1.694-1.788l-2.421-46.197
							c-0.052-0.986-0.896-1.788-1.882-1.788H80.149c-0.986,0-1.746,0.802-1.694,1.788l2.421,46.197
							C80.927,175.619,81.771,176.421,82.757,176.421z"/>
						<path style="opacity:0.4;" d="M82.757,176.421h73.695c0.986,0,1.746-0.802,1.694-1.788l-2.421-46.197
							c-0.052-0.986-0.896-1.788-1.882-1.788H80.149c-0.986,0-1.746,0.802-1.694,1.788l2.421,46.197
							C80.927,175.619,81.771,176.421,82.757,176.421z"/>
					</g>
					<g>
						<g>
							<g>
								<g>
									<polygon style="fill:#407BFF;" points="152.064,185.597 107.774,185.597 115.777,191.771 160.059,191.771 									"/>
									<polygon style="opacity:0.4;fill:#FFFFFF;" points="152.064,185.597 107.774,185.597 115.777,191.771 160.059,191.771 
																			"/>
								</g>
							</g>
							<g>
								<polygon style="fill:#407BFF;" points="108.797,191.771 107.774,185.597 115.777,191.771 								"/>
								<polygon style="opacity:0.5;" points="108.797,191.771 107.774,185.597 115.777,191.771 								"/>
							</g>
						</g>
					</g>
					<g>
						<g>
							<g>
								<g>
									<g>
										<polygon style="fill:#FFB273;" points="143.367,287.432 137.585,285.703 138.933,271.529 144.715,273.258 										"/>
										<polygon style="opacity:0.2;enable-background:new    ;" points="145.192,270.057 139.41,268.336 138.656,276.275 
											144.502,277.362 										"/>
									</g>
									<path style="fill:#407BFF;" d="M177.592,199.891c0,0-39.761,3.355-38.786,20.622c0.779,13.753,3.563,3.474-1.221,52.322
										l10.003,0.552c0,0,10.176-34.377,8.803-48.036c11.208,0,36.866,0.984,40.594-9.129c1.851-5.135,2.752-10.564,2.657-16.022
										L177.592,199.891z"/>
								</g>
								<polygon style="fill:#263238;" points="149.178,275.322 136.107,273.086 136.321,267.303 149.852,270.31 								"/>
							</g>
							<g>
								<path style="fill:#263238;" d="M136.99,283.325l6.678,1.321c0.235,0.034,0.404,0.284,0.381,0.562l-0.555,6.314
									c-0.101,0.68-0.643,1.142-1.221,1.04c-2.316-0.506-3.411-0.881-6.345-1.461c-1.809-0.356-5.941-1.227-8.455-1.508
									c-2.514-0.281-2.213-3.223-1.126-3.372c4.886-0.646,7.662-1.433,9.558-2.66C136.233,283.341,136.616,283.259,136.99,283.325
									z"/>
								<g>
									<path style="fill:#407BFF;" d="M133.994,284.469c0.526,0.071,1.057,0.087,1.586,0.048c0.054-0.001,0.102-0.036,0.119-0.087
										c0.027-0.047,0.027-0.104,0-0.151c-0.167-0.167-1.666-1.586-2.435-1.428c-0.181,0.031-0.33,0.159-0.389,0.333
										c-0.127,0.254-0.109,0.556,0.048,0.793C133.207,284.267,133.588,284.442,133.994,284.469z M135.271,284.255
										c-1.102,0-1.88-0.127-2.11-0.452c-0.092-0.157-0.092-0.351,0-0.508c0.025-0.086,0.095-0.153,0.182-0.174
										C133.748,283.034,134.652,283.7,135.271,284.255z"/>
									<path style="fill:#407BFF;" d="M135.588,284.517c0,0,0.04,0,0.063,0c0.046-0.018,0.081-0.056,0.095-0.103
										c0-0.071,0.436-1.761-0.071-2.435c-0.125-0.183-0.333-0.293-0.555-0.293c-0.245-0.035-0.481,0.103-0.571,0.333
										c-0.246,0.627,0.436,2.015,0.968,2.467C135.535,284.505,135.561,284.516,135.588,284.517z M135.175,281.971
										c0.112,0.018,0.212,0.081,0.278,0.174c0.233,0.626,0.258,1.31,0.071,1.951c-0.481-0.543-0.736-1.25-0.714-1.975
										c0-0.079,0.087-0.167,0.293-0.159L135.175,281.971z"/>
								</g>
							</g>
							<g>
								<g>
									<polygon style="fill:#FFB273;" points="117.589,289.637 112.084,287.162 115.892,273.583 121.396,276.058 									"/>
									<polygon style="opacity:0.2;enable-background:new    ;" points="122.326,272.564 116.821,270.089 114.862,277.093 
										120.367,279.568 									"/>
								</g>
								<g>
									<path style="fill:#407BFF;" d="M165.758,199.891c-0.262,0-44.576,4.561-44.631,19.591
										c-0.095,24.858-7.194,53.353-7.194,53.353l8.758,4.339c0,0,15.251-30.891,15.021-50.268
										c12.191-3.498,43.727,2.379,47.455-7.725c3.054-8.265,1.404-19.29,1.404-19.29H165.758z"/>
									<polygon style="fill:#263238;" points="124.09,278.431 112.352,273.149 113.296,268.342 125.677,272.618 									"/>
								</g>
							</g>
							<g>
								<path style="fill:#263238;" d="M112.632,282.599l6.694,1.39c0.232,0.043,0.396,0.315,0.373,0.618l-0.523,6.942
									c-0.09,0.753-0.632,1.27-1.212,1.154c0,0-0.001,0-0.001,0c-2.316-0.536-3.411-0.948-6.345-1.555
									c-1.809-0.371-6.734-1.565-9.217-2.214c-2.483-0.649-1.927-3.811-0.793-3.831c4.91-0.072,8.09-0.875,9.978-2.245
									C111.902,282.623,112.27,282.533,112.632,282.599z"/>
								<g>
									<path style="fill:#407BFF;" d="M109.882,284.098c0.466-0.253,0.904-0.555,1.306-0.901c0.045-0.036,0.063-0.096,0.047-0.152
										c-0.017-0.051-0.063-0.087-0.116-0.092c-0.233-0.037-2.28-0.303-2.811,0.289c-0.119,0.137-0.159,0.326-0.107,0.5
										c0.046,0.28,0.239,0.514,0.505,0.613C109.117,284.42,109.536,284.328,109.882,284.098z M110.778,283.172
										c-0.862,0.676-1.584,1.005-1.963,0.888c-0.17-0.073-0.286-0.233-0.303-0.417c-0.03-0.083-0.011-0.177,0.049-0.242
										C108.845,283.117,109.956,283.093,110.778,283.172z"/>
									<path style="fill:#407BFF;" d="M111.189,283.197l0.058-0.042c0.03-0.036,0.035-0.086,0.015-0.128
										c-0.042-0.058-0.694-1.682-1.501-1.929c-0.209-0.068-0.438-0.033-0.617,0.096c-0.217,0.12-0.325,0.372-0.261,0.612
										c0.17,0.651,1.54,1.362,2.242,1.41C111.146,283.214,111.168,283.208,111.189,283.197z M109.345,281.39
										c0.1-0.057,0.219-0.069,0.329-0.033c0.559,0.369,0.987,0.906,1.223,1.533c-0.712-0.15-1.34-0.568-1.752-1.168
										c-0.047-0.064-0.027-0.186,0.144-0.301L109.345,281.39z"/>
								</g>
							</g>
							<g>
								<path style="fill:#FFB273;" d="M180.812,151.934c1.166,2.506,2.126,4.918,3.085,7.424c0.96,2.506,1.808,5.013,2.594,7.583
									c0.785,2.57,1.467,5.203,2.015,7.932c0.597,2.835,0.895,5.725,0.888,8.622c-0.009,1.701-0.263,3.392-0.754,5.021
									c-0.309,0.998-0.754,1.948-1.325,2.824c-0.331,0.496-0.711,0.959-1.134,1.38l-0.341,0.333
									c-0.19,0.159-0.397,0.333-0.595,0.468c-0.335,0.229-0.69,0.426-1.063,0.587c-0.55,0.243-1.124,0.427-1.713,0.547
									c-0.463,0.099-0.932,0.167-1.404,0.206c-0.806,0.051-1.614,0.051-2.419,0c-1.431-0.068-2.856-0.227-4.267-0.476
									c-5.265-0.957-10.422-2.434-15.395-4.41l1.15-4.37c5.037,0.603,10.176,1.245,15.023,1.467c1.206,0,2.38,0.056,3.474,0
									c0.488-0.026,0.973-0.087,1.452-0.182c0.397-0.071,0.738-0.214,0.619-0.206c-0.079,0.027-0.154,0.064-0.222,0.111
									c-0.079,0.048-0.154,0.104-0.222,0.167l0,0c0,0,0.04-0.064,0.071-0.135c0.103-0.227,0.183-0.463,0.238-0.706
									c0.177-0.871,0.249-1.761,0.214-2.649c-0.117-2.272-0.454-4.527-1.007-6.734c-0.539-2.38-1.237-4.696-1.999-7.051
									c-0.761-2.356-1.586-4.712-2.49-7.059c-0.904-2.348-1.856-4.704-2.792-6.916L180.812,151.934z"/>
								<path style="fill:#FFB273;" d="M162.323,186.793l-5.259-2.958l-2.641,5.695c0,0,6.147,2.562,7.44,0.96L162.323,186.793z"/>
								<polygon style="fill:#FFB273;" points="152.805,184.914 150.402,188.721 154.423,189.49 157.065,183.795 								"/>
							</g>
							<g>
								<path style="fill:#FFB273;" d="M168.55,156.457c-1.007,2.53-2.062,4.949-3.173,7.4c-1.11,2.451-2.221,4.862-3.395,7.273
									c-2.363,4.91-5.012,9.677-7.932,14.277c-0.793,1.174-1.586,2.34-2.475,3.506c-0.444,0.587-0.936,1.166-1.459,1.761
									c-0.286,0.301-0.516,0.579-0.849,0.888l-0.476,0.46l-0.27,0.254c-0.755,0.646-1.643,1.118-2.602,1.38
									c-0.505,0.143-1.019,0.252-1.539,0.325c-0.847,0.102-1.701,0.137-2.554,0.103c-1.473-0.047-2.941-0.193-4.394-0.436
									c-5.378-0.95-10.645-2.443-15.721-4.458l1.158-4.378c5.132,0.619,10.375,1.277,15.308,1.483
									c1.163,0.045,2.328,0.029,3.49-0.048c0.468-0.037,0.932-0.111,1.388-0.222c0.149-0.035,0.293-0.088,0.428-0.159
									c0.048,0,0-0.056-0.214,0.079c-0.078,0.044-0.15,0.097-0.214,0.159c0,0,0.056-0.071,0.079-0.095l0.222-0.246
									c0.143-0.143,0.317-0.381,0.484-0.571c0.325-0.412,0.658-0.857,0.992-1.34c0.658-0.944,1.301-1.991,1.935-3.054
									c1.269-2.126,2.451-4.386,3.609-6.671c1.158-2.284,2.268-4.616,3.363-6.964c2.181-4.68,4.315-9.478,6.345-14.198
									L168.55,156.457z"/>
								<g>
									<path style="fill:#FFB273;" d="M125.124,185.955l-5.267-2.998l-2.641,5.695c0,0,6.147,2.57,7.448,0.968L125.124,185.955z"
										/>
									<polygon style="fill:#FFB273;" points="115.606,184.083 113.195,187.882 117.216,188.652 119.857,182.956 									"/>
								</g>
							</g>
							<g>
								<path style="fill:#FFB273;" d="M182.168,128.316l-3.363,3.894l-5.132,5.309c0.105,0.261,0.247,0.601,0.393,0.962
									c0.395,0.979,0.629,2.018,0.685,3.072c0.112,2.128-0.092,3.928-3.448,5.371c0,0-3.522,4.6,4.854,3.323
									c8.376-1.277,9.637-5.624,9.637-5.624C182.081,141.982,181.875,133.201,182.168,128.316z"/>
								<g>
									<path style="fill:#263238;" d="M165.092,123.921c0,0.523-0.262,0.968-0.611,0.984c-0.349,0.016-0.627-0.397-0.635-0.92
										c-0.008-0.524,0.27-0.968,0.611-0.984C164.798,122.985,165.084,123.398,165.092,123.921z"/>
									<path style="fill:#263238;" d="M166.844,121.97c-0.104-0.001-0.199-0.055-0.254-0.143
										c-0.416-0.683-1.125-1.134-1.919-1.221c-0.169-0.009-0.302-0.148-0.301-0.317c0.004-0.171,0.146-0.306,0.317-0.301
										c0,0,0,0,0,0l0,0c1.002,0.089,1.903,0.648,2.427,1.507c0.088,0.145,0.046,0.334-0.095,0.428
										C166.966,121.954,166.906,121.97,166.844,121.97z"/>
									<path style="fill:#630F0F;" d="M164.901,124.215c-0.425,1.429-1.039,2.794-1.824,4.061c0.659,0.372,1.451,0.43,2.157,0.159
										L164.901,124.215z"/>
									<path style="fill:#FFB273;" d="M182.644,121.28c-0.309,6.472-0.167,10.311-3.379,13.738
										c-3.129,3.449-8.461,3.707-11.91,0.578c-1.265-1.147-2.151-2.652-2.542-4.314c-1.459-5.735-0.698-15.356,5.552-18.243
										c4.216-2.088,9.326-0.364,11.415,3.852C182.454,118.251,182.753,119.766,182.644,121.28z"/>
								</g>
							</g>
							<g>
								<g>
									<path style="fill:#263238;" d="M185.581,123.439c-0.936,2.744-2.356,5.298-4.204,7.535l-8.424,1.586
										c0,0-6.655-2.784-4.878-7.368c-1.126-0.952-0.706-3.894,0.087-5.512c1.269,1.015,3.355,1.103,4.497-0.119
										c0.92,1.689,3.68,1.927,4.878,0.405c1.372,1.523,4.299,1.055,5.124-0.825c1.015,0.666,2.475,0.571,3.395-0.222
										c0.04-0.04,0.079-0.071,0.119-0.111C186.311,119.965,186.176,121.479,185.581,123.439z"/>
									<path style="opacity:0.1;fill:#FFFFFF;" d="M185.581,123.439c-0.936,2.744-2.356,5.298-4.204,7.535l-8.424,1.586
										c0,0-6.655-2.784-4.878-7.368c-1.126-0.952-0.706-3.894,0.087-5.512c1.269,1.015,3.355,1.103,4.497-0.119
										c0.92,1.689,3.68,1.927,4.878,0.405c1.372,1.523,4.299,1.055,5.124-0.825c1.015,0.666,2.475,0.571,3.395-0.222
										c0.04-0.04,0.079-0.071,0.119-0.111C186.311,119.965,186.176,121.479,185.581,123.439z"/>
								</g>
								<path style="fill:#263238;" d="M186.795,115.594c0.476,1.063,0.214,2.403-0.619,3.212c-0.04,0.04-0.079,0.071-0.119,0.111
									c-0.92,0.793-2.38,0.888-3.395,0.222c-0.825,1.88-3.752,2.348-5.124,0.825c-1.198,1.523-3.958,1.285-4.878-0.405
									c-1.142,1.221-3.228,1.134-4.497,0.119c-0.333-0.262-0.611-0.595-0.793-0.983c-0.048-0.087-0.079-0.174-0.111-0.262
									c-0.071,0.079-0.143,0.151-0.222,0.214c-0.769,0.634-1.983,0.73-2.824,0.167c-0.69-0.46-1.071-1.317-1.015-2.134
									c0.008-0.174,0.04-0.341,0.087-0.508c-0.063,0.119-0.143,0.23-0.238,0.325c-0.69,0.738-2.149,0.769-2.824-0.071
									c-0.841-1.039-0.365-2.768,0.785-3.458c0.46-0.27,0.968-0.397,1.491-0.397c0.809,0,1.634,0.293,2.276,0.785
									c-0.69-0.991-0.444-2.506,0.523-3.228c0.968-0.714,2.49-0.516,3.236,0.428c-0.103-1.126,0.27-1.8,0.849-2.149
									c1.095-0.635,2.919-0.087,3.807,0.976c0,0,1.221-2.951,3.331-2.618c0.46,0.064,2.625,1.023,2.57,1.801
									c0,0.055-0.016,0.103-0.04,0.151c0.032-0.063,0.063-0.119,0.103-0.174c0.412-0.65,1.245-0.976,2.031-0.96
									c0.849,0.008,1.658,0.333,2.443,0.65c1.642,0.674,3.387,1.428,4.339,2.927C188.913,112.668,188.5,115.118,186.795,115.594z"
									/>
								<path style="fill:#FFB273;" d="M171.794,125.793c-0.23,1.599-0.964,3.082-2.094,4.235c-1.436,1.372-2.657,0-2.673-2.086
									c0-1.888,0.706-4.878,2.38-5.433C171.08,121.954,172.103,123.739,171.794,125.793z"/>
							</g>
							<g>
								<path style="fill:#407BFF;" d="M197.159,146.876c-0.595-1.586-3.371-3.173-5.076-3.173h-1.126
									c-1.967,0-4.418,0.159-6.797,0.436c-4.534,0.502-9.036,1.259-13.484,2.268c-2.046,0.539-4.021,1.221-5.592,1.808
									c-1.999,0.793-3.173,1.325-3.173,1.325s2.191,14.582,3.323,29.066c0.63,8.06,0.37,16.065,0.571,21.569h33.836
									c1.166-6.615,0.982-12.384,1.077-24.329C200.775,168.677,199.61,153.403,197.159,146.876z"/>
								<path style="opacity:0.2;enable-background:new    ;" d="M164.503,170.511c0.254,3.038,0.516,6.226,0.793,9.415
									c3.966-5.79,6.163-21.63,6.163-21.63L164.503,170.511z"/>
							</g>
							<path style="fill:#407BFF;" d="M159.999,150.607c-4.846,2.729-9.597,16.691-9.597,16.691l11.096,8.373
								c4.236-4.006,10.43-13.944,11.104-17.918C173.689,151.654,167.764,146.26,159.999,150.607z"/>
						</g>
						<g>
							<g>
								<path style="fill:#263238;" d="M150.423,292.736c0,1.906-1.545,3.45-3.45,3.45c-1.906,0-3.45-1.545-3.45-3.45
									c0-1.906,1.545-3.45,3.45-3.45C148.878,289.286,150.423,290.83,150.423,292.736L150.423,292.736z"/>
								<path style="fill:#263238;" d="M201.891,292.736c0,1.906,1.545,3.45,3.45,3.45c1.906,0,3.45-1.545,3.45-3.45
									c0-1.906-1.545-3.45-3.45-3.45C203.436,289.286,201.891,290.83,201.891,292.736L201.891,292.736z"/>
								<path style="fill:#263238;" d="M172.799,291.633c0,1.905,1.545,3.45,3.45,3.45s3.45-1.545,3.45-3.45
									c0-1.906-1.545-3.45-3.45-3.45S172.799,289.727,172.799,291.633L172.799,291.633z"/>
							</g>
							<g>
								<path style="fill:#263238;" d="M175.178,287.374v-6.671h-9.883c-1.94,0.001-3.875,0.182-5.782,0.539l-18.402,3.576
									c-0.907,0.177-1.499,1.056-1.323,1.963c0.157,0.806,0.875,1.378,1.695,1.353L175.178,287.374z"/>
								<path style="fill:#263238;" d="M175.178,287.374v-6.671h9.891c1.94,0.001,3.876,0.181,5.782,0.539l20.682,3.307
									c0.907,0.177,1.499,1.055,1.322,1.963c-0.157,0.806-0.875,1.378-1.695,1.353L175.178,287.374z"/>
							</g>
							<g>
								<rect x="169.054" y="250.167" style="fill:#263238;" width="12.238" height="30.545"/>
								<rect x="170.815" y="235.953" style="fill:#263238;" width="8.725" height="14.205"/>
								<polygon style="opacity:0.5;enable-background:new    ;" points="170.815,240.125 179.54,242.322 179.54,235.953 
									170.815,235.953 								"/>
							</g>
							<g>
								<g>
									<path style="fill:#407BFF;" d="M169.202,235.953v-82.238c0-3.114,1.344-6.076,3.686-8.127l5.861-5.131
										c1.969-1.724,4.497-2.674,7.115-2.674h21.174l10.347,11.009v87.161H169.202z"/>
									<path style="fill:#407BFF;" d="M137.677,220.042h48.304v15.911h-56.172c-3.154,0.002-5.713-2.552-5.715-5.706
										c-0.001-1.026,0.275-2.033,0.798-2.915l0,0C127.564,222.812,132.426,220.04,137.677,220.042z"/>
									<path style="opacity:0.3;fill:#FFFFFF;" d="M217.387,148.796v87.161h-87.581c-3.149,0-5.711-2.554-5.711-5.711
										c0-1.023,0.27-2.031,0.793-2.911c2.673-4.513,7.519-7.289,12.762-7.289h24.329c3.989,0,7.223-3.234,7.223-7.223v-59.109
										c0-3.109,1.34-6.076,3.688-8.122l5.862-5.132c1.967-1.729,4.497-2.673,7.115-2.673h21.169L217.387,148.796z"/>
									<g>
										<path style="fill:#407BFF;" d="M176.249,235.953v-82.238c0-3.114,1.344-6.076,3.686-8.127l5.861-5.131
											c1.969-1.724,4.497-2.674,7.115-2.674h16.503c2.981,0,5.829,1.232,7.871,3.404l4.217,4.487
											c1.883,2.003,2.931,4.648,2.931,7.397v74.648c0,4.548-3.687,8.234-8.234,8.234H176.249z"/>
										<path style="opacity:0.7;fill:#FFFFFF;" d="M176.249,235.953v-82.238c0-3.114,1.344-6.076,3.686-8.127l5.861-5.131
											c1.969-1.724,4.497-2.674,7.115-2.674h16.503c2.981,0,5.829,1.232,7.871,3.404l4.217,4.487
											c1.883,2.003,2.931,4.648,2.931,7.397v74.648c0,4.548-3.687,8.234-8.234,8.234H176.249z"/>
									</g>
								</g>
							</g>
						</g>
					</g>
				</g>
				<g>
					<g>
						<polygon style="fill:#407BFF;" points="136.051,172.221 94.721,172.221 92.908,146.297 134.238,146.297 						"/>
						<polygon style="opacity:0.5;" points="136.051,172.221 94.721,172.221 92.908,146.297 134.238,146.297 						"/>
						<polygon style="fill:#407BFF;" points="134.355,147.962 93.024,147.962 92.908,146.297 134.238,146.297 						"/>
					</g>
					<g>
						<polygon style="fill:#407BFF;" points="151.855,158.051 110.524,158.051 108.711,132.126 150.042,132.126 						"/>
						<polygon style="opacity:0.8;fill:#FFFFFF;" points="151.855,158.051 110.524,158.051 108.711,132.126 150.042,132.126 						
							"/>
					</g>
					<polygon style="fill:#407BFF;" points="150.158,133.792 108.827,133.792 108.711,132.126 150.042,132.126 					"/>
				</g>
			</g>
		</g>
		<g>
			<path style="fill:#407BFF;" d="M138.624,206.693l-5.669-6.222l-0.739,0.674l5.984,6.567
				C138.261,207.342,138.408,206.994,138.624,206.693z"/>
			<path style="fill:#407BFF;" d="M147.874,216.843c-0.113,0.332-0.305,0.629-0.556,0.875l12.163,13.347
				c0.228-0.239,0.519-0.422,0.868-0.533L147.874,216.843z"/>
			<path style="fill:#407BFF;" d="M145.069,213.765l-3.349-3.675c-0.278,0.194-0.622,0.319-1.023,0.362l3.49,3.83
				C144.419,214.048,144.714,213.869,145.069,213.765z"/>
			<path style="fill:#407BFF;" d="M180.413,252.552l-17.232-18.91c-0.12,0.327-0.313,0.621-0.569,0.86l17.334,19.022
				C180.028,253.167,180.18,252.831,180.413,252.552z"/>
			<path style="fill:#407BFF;" d="M183.54,255.983c-0.259,0.211-0.579,0.362-0.96,0.431l16.637,18.258l0.739-0.674L183.54,255.983z"
				/>
		</g>
		<path style="fill:none;stroke:#407BFF;stroke-miterlimit:10;" d="M180.955,200.568H84.216c-4.933,0-8.932-3.999-8.932-8.932
			V94.897c0-4.933,3.999-8.932,8.932-8.932h96.739c4.933,0,8.932,3.999,8.932,8.932v96.739
			C189.887,196.569,185.888,200.568,180.955,200.568z"/>
	</g>
</g>
<g id="Device_3">
	<g>
		<g>
			<defs>
				<path id="SVGID_00000019667823293021905000000014722075169597042871_" d="M281.249,139.335h-65.272
					c-4.933,0-8.932-3.999-8.932-8.932V65.132c0-4.933,3.999-8.932,8.932-8.932h65.272c4.933,0,8.932,3.999,8.932,8.932v65.272
					C290.181,135.336,286.182,139.335,281.249,139.335z"/>
			</defs>
			<clipPath id="SVGID_00000097468639969549370910000003052706876857797535_">
				<use xlink:href="#SVGID_00000019667823293021905000000014722075169597042871_"  style="overflow:visible;"/>
			</clipPath>
			<g style="clip-path:url(#SVGID_00000097468639969549370910000003052706876857797535_);">
				<g>
					<path style="fill:#FF8B7B;" d="M237.04,91.28l-6.145,3.194c0,0-0.596,23.041,0,26.219c0.596,3.178,3.653,4.156,3.653,4.156
						l6.203-4.85L237.04,91.28z"/>
					<path style="fill:#FF8B7B;" d="M230.895,94.474c0,0-7.514,12.761-12.887,30.374c-3.124,10.241,15.059,10.888,18.388,7.28
						c0.828-0.898,6.995-10.23,6.995-10.23L230.895,94.474z"/>
					<g>
						<g id="_x3C_Group_x3E__3_">
							<g>
								<g>
									<path style="fill:#407BFF;" d="M256.437,125.227h-20.743c-1.967,0-3.423-1.595-3.251-3.562l3.949-45.138
										c0.172-1.967,1.907-3.562,3.874-3.562h20.743c1.967,0,3.423,1.595,3.251,3.562l-3.949,45.138
										C260.139,123.632,258.404,125.227,256.437,125.227z"/>
									<path style="opacity:0.1;" d="M256.437,125.227h-20.743c-1.967,0-3.423-1.595-3.251-3.562l3.949-45.138
										c0.172-1.967,1.907-3.562,3.874-3.562h20.743c1.967,0,3.423,1.595,3.251,3.562l-3.949,45.138
										C260.139,123.632,258.404,125.227,256.437,125.227z"/>
								</g>
								<g style="opacity:0.8;">
									<path style="fill:#FFFFFF;" d="M246.152,123.713c-0.485,0-0.926-0.189-1.241-0.533c-0.316-0.346-0.467-0.805-0.425-1.292
										c0.087-0.995,0.967-1.804,1.962-1.804c0.485,0,0.926,0.189,1.241,0.533c0.317,0.346,0.467,0.805,0.425,1.292l0,0
										C248.027,122.904,247.146,123.713,246.152,123.713z M246.448,120.323c-0.874,0-1.648,0.711-1.724,1.586
										c-0.037,0.42,0.092,0.814,0.363,1.11c0.269,0.293,0.647,0.455,1.065,0.455c0.874,0,1.648-0.711,1.724-1.586l0,0
										c0.037-0.42-0.092-0.814-0.363-1.11C247.244,120.485,246.866,120.323,246.448,120.323z"/>
								</g>
								<g style="opacity:0.8;">
									<path style="fill:#FFFFFF;" d="M253.658,77.119h-6.717c-0.202,0-0.386-0.079-0.517-0.223
										c-0.132-0.144-0.195-0.335-0.177-0.538l0.014-0.156c0.036-0.408,0.397-0.74,0.805-0.74h6.716
										c0.202,0,0.386,0.079,0.518,0.223c0.132,0.144,0.195,0.336,0.177,0.539l-0.014,0.155
										C254.428,76.787,254.067,77.119,253.658,77.119z M247.066,75.701c-0.288,0-0.542,0.234-0.567,0.522l-0.013,0.155
										c-0.012,0.136,0.029,0.262,0.116,0.356c0.086,0.094,0.207,0.145,0.341,0.145h6.717c0.288,0,0.542-0.234,0.567-0.522
										l0.014-0.156c0.012-0.135-0.029-0.262-0.116-0.356c-0.086-0.094-0.207-0.145-0.341-0.145H247.066z"/>
								</g>
								<g>
									<polygon style="opacity:0.1;fill:#FFFFFF;enable-background:new    ;" points="252.32,73.127 240.752,125.227 
										247.704,125.227 259.157,73.127 									"/>
									<polygon style="opacity:0.1;fill:#FFFFFF;enable-background:new    ;" points="246.911,73.127 235.343,125.227 
										238.848,125.227 250.3,73.127 									"/>
									<g>
										<polygon style="fill:#407BFF;" points="258.602,117.899 234.711,117.899 238.08,79.394 261.97,79.394 										"/>
										<polygon style="opacity:0.7;fill:#FFFFFF;" points="258.602,117.899 234.711,117.899 238.08,79.394 261.97,79.394 
																					"/>
									</g>
								</g>
							</g>
						</g>
						<g>
							<g>
								<path style="fill:#407BFF;" d="M258.741,93.729c-0.005,0.06-0.015,0.12-0.026,0.179c-0.074,0.387-0.281,0.737-0.565,0.997
									c-0.327,0.301-0.759,0.488-1.219,0.488h-16.957c-0.859,0-1.509-0.65-1.524-1.485c-0.001-0.058,0-0.118,0.005-0.179
									c0.04-0.458,0.263-0.875,0.59-1.174c0.327-0.301,0.759-0.488,1.219-0.488h16.957
									C258.142,92.067,258.821,92.812,258.741,93.729z"/>
								<path style="opacity:0.8;fill:#FFFFFF;" d="M258.741,93.729c-0.005,0.06-0.015,0.12-0.026,0.179
									c-0.074,0.387-0.281,0.737-0.565,0.997c-0.327,0.301-0.759,0.488-1.219,0.488h-16.957c-0.859,0-1.509-0.65-1.524-1.485
									c-0.001-0.058,0-0.118,0.005-0.179c0.04-0.458,0.263-0.875,0.59-1.174c0.327-0.301,0.759-0.488,1.219-0.488h16.957
									C258.142,92.067,258.821,92.812,258.741,93.729z"/>
							</g>
							<g>
								<path style="fill:#407BFF;" d="M238.451,93.907c0,0.054,0.004,0.108,0.012,0.161c0.052-0.433,0.271-0.827,0.584-1.112
									c0.327-0.301,0.759-0.488,1.218-0.488l18.033,0.028c-0.271-0.267-0.648-0.43-1.076-0.43h-16.957
									c-0.46,0-0.891,0.187-1.218,0.488c-0.327,0.299-0.552,0.716-0.592,1.174C238.451,93.789,238.449,93.849,238.451,93.907z"/>
								<path style="opacity:0.5;fill:#FFFFFF;enable-background:new    ;" d="M238.451,93.907c0,0.054,0.004,0.108,0.012,0.161
									c0.052-0.433,0.271-0.827,0.584-1.112c0.327-0.301,0.759-0.488,1.218-0.488l18.033,0.028
									c-0.271-0.267-0.648-0.43-1.076-0.43h-16.957c-0.46,0-0.891,0.187-1.218,0.488c-0.327,0.299-0.552,0.716-0.592,1.174
									C238.451,93.789,238.449,93.849,238.451,93.907z"/>
							</g>
							<g>
								<g>
									<path style="fill:#263238;" d="M241.79,92.869l-0.07,0.803l0.811-0.271l0.109,0.398l-0.809,0.256l0.428,0.68l-0.38,0.256
										l-0.409-0.707l-0.54,0.707l-0.346-0.256l0.554-0.68l-0.772-0.256l0.18-0.4l0.755,0.282l0.071-0.811H241.79z"/>
									<path style="fill:#263238;" d="M246.428,92.869l-0.07,0.803l0.811-0.271l0.109,0.398l-0.81,0.256l0.428,0.68l-0.38,0.256
										l-0.409-0.707l-0.54,0.707l-0.346-0.256l0.554-0.68l-0.772-0.256l0.179-0.4l0.755,0.282l0.071-0.811H246.428z"/>
									<path style="fill:#263238;" d="M251.065,92.869l-0.07,0.803l0.811-0.271l0.109,0.398l-0.81,0.256l0.428,0.68l-0.38,0.256
										l-0.409-0.707l-0.54,0.707l-0.346-0.256l0.554-0.68l-0.772-0.256l0.18-0.4l0.755,0.282l0.071-0.811H251.065z"/>
									<path style="fill:#263238;" d="M255.703,92.869l-0.07,0.803l0.811-0.271l0.109,0.398l-0.809,0.256l0.428,0.68l-0.38,0.256
										l-0.409-0.707l-0.54,0.707l-0.346-0.256l0.554-0.68l-0.772-0.256l0.179-0.4l0.755,0.282l0.071-0.811H255.703z"/>
								</g>
							</g>
							<g>
								<g>
									<rect x="244.044" y="91.28" style="fill:#407BFF;" width="0.79" height="0.201"/>
								</g>
								<g>
									<rect x="240.644" y="91.28" style="fill:#407BFF;" width="2.58" height="0.201"/>
								</g>
							</g>
						</g>
						<g>
							<path style="fill:#407BFF;" d="M265.581,76.524l-3.945,45.142c-0.177,1.968-1.911,3.559-3.878,3.559h-1.319
								c1.963,0,3.702-1.591,3.874-3.559l3.945-45.142c0.172-1.963-1.28-3.559-3.248-3.559h1.323
								C264.301,72.965,265.753,74.561,265.581,76.524z"/>
							<path style="opacity:0.5;fill:#FFFFFF;" d="M265.581,76.524l-3.945,45.142c-0.177,1.968-1.911,3.559-3.878,3.559h-1.319
								c1.963,0,3.702-1.591,3.874-3.559l3.945-45.142c0.172-1.963-1.28-3.559-3.248-3.559h1.323
								C264.301,72.965,265.753,74.561,265.581,76.524z"/>
						</g>
						<g>
							
								<rect x="263.811" y="85.101" transform="matrix(0.0722 -0.9974 0.9974 0.0722 160.5192 343.1176)" style="fill:#407BFF;" width="1.743" height="0.361"/>
							
								<rect x="262.51" y="80.171" transform="matrix(0.0722 -0.9974 0.9974 0.0722 165.7611 338.896)" style="fill:#407BFF;" width="5.056" height="0.361"/>
						</g>
					</g>
					<g>
						<path style="fill:#407BFF;" d="M251.856,110.412h-10.247c-1.246,0-2.167-1.01-2.059-2.256l0,0
							c0.109-1.246,1.207-2.256,2.453-2.256h10.247c1.246,0,2.168,1.01,2.059,2.256l0,0
							C254.2,109.402,253.102,110.412,251.856,110.412z"/>
						<path style="opacity:0.4;" d="M251.856,110.412h-10.247c-1.246,0-2.167-1.01-2.059-2.256l0,0
							c0.109-1.246,1.207-2.256,2.453-2.256h10.247c1.246,0,2.168,1.01,2.059,2.256l0,0
							C254.2,109.402,253.102,110.412,251.856,110.412z"/>
					</g>
					<g>
						<path style="fill:#FF8B7B;" d="M230.895,106.505l9.278-1.488l1.286,0.136c1.357,0.144,2.239,1.493,1.833,2.795
							c-0.379,1.216-0.794,2.415-0.962,2.415c-0.341,0-9.557,7.535-9.557,7.535s-1.987,1.828-1.878-0.525V106.505z"/>
					</g>
				</g>
				<polygon style="fill:#FF8B7B;" points="218.009,124.849 233.449,133.61 226.094,158.438 201.2,158.438 				"/>
			</g>
			
				<use xlink:href="#SVGID_00000019667823293021905000000014722075169597042871_"  style="overflow:visible;fill:none;stroke:#407BFF;stroke-miterlimit:10;"/>
		</g>
		<g>
			<path style="fill:none;stroke:#407BFF;stroke-miterlimit:10;" d="M281.249,139.335h-65.272c-4.933,0-8.932-3.999-8.932-8.932
				V65.132c0-4.933,3.999-8.932,8.932-8.932h65.272c4.933,0,8.932,3.999,8.932,8.932v65.272
				C290.181,135.336,286.182,139.335,281.249,139.335z"/>
		</g>
		<g>
			<path style="fill:#407BFF;" d="M258.723,152.946c0.308,0,0.575,0.059,0.82,0.147l1.191-13.613l-0.996-0.087l-1.187,13.57
				C258.609,152.959,258.661,152.946,258.723,152.946z"/>
			<path style="fill:#407BFF;" d="M258.788,161.719l0.363-4.153c-0.137,0.023-0.276,0.042-0.428,0.042
				c-0.206,0-0.395-0.026-0.573-0.067l-0.347,3.962C258.179,161.508,258.507,161.586,258.788,161.719z"/>
			<path style="fill:#407BFF;" d="M256.43,188.673l1.977-22.597c-0.196,0.051-0.403,0.087-0.635,0.087
				c-0.133,0-0.252-0.02-0.373-0.037l-1.929,22.048C255.859,188.258,256.174,188.439,256.43,188.673z"/>
			<path style="fill:#407BFF;" d="M253.97,206.174c0.346,0,0.647,0.068,0.913,0.177l1.215-13.889c-0.286,0.17-0.628,0.278-1.03,0.3
				l-1.174,13.419C253.921,206.18,253.943,206.174,253.97,206.174z"/>
			<path style="fill:#407BFF;" d="M253.97,210.836c-0.17,0-0.328-0.019-0.479-0.048l-4.714,53.885l0.996,0.088l4.722-53.978
				C254.332,210.818,254.157,210.836,253.97,210.836z"/>
		</g>
	</g>
</g>
<g id="Device_4">
	<g>
		<g>
			<g>
				<defs>
					<path id="SVGID_00000044883356393537030100000011431046590229456007_" d="M412.667,215.752h-96.739
						c-4.933,0-8.932-3.999-8.932-8.932v-96.739c0-4.933,3.999-8.932,8.932-8.932h96.739c4.933,0,8.932,3.999,8.932,8.932v96.739
						C421.598,211.753,417.599,215.752,412.667,215.752z"/>
				</defs>
				<clipPath id="SVGID_00000034787775340981001120000006810501571169760416_">
					<use xlink:href="#SVGID_00000044883356393537030100000011431046590229456007_"  style="overflow:visible;"/>
				</clipPath>
				<g style="clip-path:url(#SVGID_00000034787775340981001120000006810501571169760416_);">
					<g>
						<g>
							<g>
								<path style="fill:#7F3E3B;" d="M310.504,125.222c0,0,0.748,5.657,10.947,8.835c10.198,3.178,6.68-3.223,6.68-3.223
									c-4.75-2.957-4.651-6.402-3.124-9.791c0.371-0.851,0.794-1.679,1.267-2.478l-4.708-7.493l-3.454-5.491
									C317.552,111.728,315.632,122.633,310.504,125.222z"/>
								<path style="fill:#263238;" d="M341.195,102.314c0.422,0.084,0.684,0.691,0.575,1.342c-0.109,0.651-0.533,1.112-0.965,1.027
									c-0.432-0.086-0.674-0.689-0.575-1.342C340.339,102.689,340.773,102.229,341.195,102.314z"/>
								<path style="fill:#263238;" d="M338.206,100.484c-0.158-0.144-0.175-0.388-0.037-0.552c0.816-0.971,2.045-1.497,3.311-1.419
									l0,0c0,0,0,0,0,0c0.214,0.027,0.365,0.222,0.338,0.436c-0.032,0.211-0.224,0.36-0.436,0.338
									c-1.007-0.041-1.976,0.387-2.624,1.159c-0.085,0.099-0.214,0.148-0.343,0.13
									C338.338,100.565,338.266,100.533,338.206,100.484z"/>
								<path style="fill:#630F0F;" d="M339.197,108.939c0.829,0.472,1.827,0.55,2.719,0.211c-0.739-1.728-1.245-3.546-1.505-5.408
									L339.197,108.939z"/>
								<path style="fill:#7F3E3B;" d="M320.759,91.416c3.402-4.859,10.099-6.041,14.958-2.639
									c7.243,4.783,6.37,16.919,3.464,23.791c-0.802,1.998-2.192,3.705-3.985,4.896c-4.891,3.247-11.488,1.914-14.735-2.977
									c-3.355-4.88-2.45-9.637-1.609-17.763C319.003,94.815,319.662,92.983,320.759,91.416z"/>
								<path style="fill:#7F3E3B;" d="M335.119,100.763c1.981,1.009,2.294,4.87,1.936,7.223c-0.415,2.597-2.197,4.076-3.727,2.094
									c-1.19-1.652-1.824-3.64-1.808-5.676C331.525,101.785,333.138,99.754,335.119,100.763z"/>
							</g>
							<g>
								<path d="M338.96,112.846c-0.435,0.018-0.863-0.138-1.186-0.44c-0.39-0.366-0.576-0.9-0.5-1.428l0.018-0.114l0.494,0.075
									l-0.017,0.112c-0.053,0.371,0.073,0.732,0.347,0.99c0.275,0.258,0.643,0.359,1.013,0.282l0.104,0.489
									C339.143,112.832,339.051,112.843,338.96,112.846z"/>
							</g>
						</g>
						<path style="fill:#263238;" d="M343.895,93.075c-0.82,1.363-1.826,2.66-3.128,3.532c-0.255,0.192-0.523,0.344-0.802,0.488
							c-1.704,0.864-3.631,1.105-5.115-0.086c0.388,1.162,0.271,2.406-0.123,3.582c-0.513,1.558-1.496,3.004-2.446,4.007
							c0.279-1.107,0.371-2.168,0.055-3.075c-0.2-0.596-0.585-1.125-1.213-1.555c-1.342-0.932-3.225-0.534-4.03,0.887
							c-0.675,1.18-0.451,2.667-0.081,3.97c0.38,1.313,0.892,2.645,0.744,3.992c-0.158,1.358-1.268,2.734-2.625,2.576
							c-0.372,0.954-1.2,1.615-2.147,1.935c-1.152,0.387-2.485,0.287-3.455-0.405c-0.202-0.134-0.376-0.3-0.542-0.487
							c-0.539,0.637-1.316,1.063-2.136,1.221c-0.611,0.131-1.246,0.104-1.843-0.077c-1.401-0.435-2.474-1.761-2.615-3.214
							c-1.749,0.326-3.656-0.76-4.267-2.435c-0.611-1.675,0.141-3.735,1.683-4.616c-1.709-0.64-2.912-2.437-2.853-4.258
							c0.059-1.821,1.382-3.537,3.125-4.053c-1.648-2.08-0.234-5.229,1.566-6.261c0.163-0.084,0.337-0.168,0.504-0.213
							c0.312-0.106,0.63-0.143,0.936-0.088l0.154,0.037c0.154,0.037,0.31,0.105,0.458,0.193c0.021,0.008,0.06-0.005,0.106-0.049
							c0.215-0.188,0.68-0.869,1.171-1.603c0.053-0.085,0.107-0.16,0.16-0.244c0.063-0.086,0.126-0.171,0.179-0.256
							c0.724-1.064,1.427-2.025,1.465-1.567c-0.293-3.046,1.453-6.182,4.189-7.543c2.747-1.362,6.3-0.865,8.549,1.205
							c1.128-1.519,3.15-2.309,5.005-1.952c1.855,0.347,3.453,1.82,3.955,3.635c2.842-1.059,6.139,1.185,7.043,4.08
							C346.424,87.285,345.454,90.466,343.895,93.075z"/>
					</g>
					<g id="_x3C_Group_x3E_">
						<g>
							<polygon style="fill:#7F3E3B;" points="377.101,279.877 384.185,277.1 387.361,294.767 380.277,297.544 							"/>
							<polygon style="opacity:0.2;enable-background:new    ;" points="378.694,289.531 385.925,287.555 384.149,277.658 
								377.064,280.425 							"/>
							<path style="fill:#7F3E3B;" d="M389.091,294.355c2.482,1.128,6.543,1.573,12.717,1.129c1.427-0.098,2.379,2.903-0.688,3.79
								c-3.067,0.887-9.16,2.558-11.402,3.106c-2.694,0.663-4.099,1.211-5.811,1.759c-1.64,0.525-3.507-0.293-3.995-1.944
								c-0.072-0.242-0.111-0.495-0.106-0.755c0,0,0.275-6.194,0.563-6.259l6.223-2.876
								C387.041,292.203,387.651,293.991,389.091,294.355z"/>
						</g>
						<g>
							<path style="fill:#407BFF;" d="M300.534,195.823c0.452,6.867,2.151,13.594,5.013,19.853
								c5.741,12.316,37.877,8.399,51.958,7.227c1.099-64.149,43.596,131.905,17.408,63.53l12.672-3.931
								c0,0-7.862-43.646-8.493-67.516c-0.579-21.797-50.887-21.856-50.887-21.856L300.534,195.823z"/>
							<path style="opacity:0.4;" d="M300.534,195.823c0.452,6.867,2.151,13.594,5.013,19.853
								c5.741,12.316,37.877,8.399,51.958,7.227c1.099-64.128,43.394,131.339,17.205,62.986l12.839-4.272
								c0,0-7.825-42.761-8.456-66.631c-0.579-21.797-50.887-21.856-50.887-21.856L300.534,195.823z"/>
						</g>
						<polygon style="fill:#407BFF;" points="371.22,280.159 387.907,274.968 388.781,282.21 373.265,287.861 						"/>
						<g>
							<g>
								<polygon style="fill:#7F3E3B;" points="406.774,282.955 413.432,279.271 419.634,295.934 412.977,299.618 								"/>
								<path style="fill:#7F3E3B;" d="M420.872,294.784c2.482,1.128,6.543,1.573,12.717,1.13c1.427-0.099,2.379,2.903-0.688,3.79
									c-3.067,0.887-9.159,2.558-11.402,3.106c-3.638,0.895-8.459,2.699-8.817-0.523c0,0-0.82-6.611-0.532-6.677l6.223-2.876
									C418.822,292.632,419.251,293.827,420.872,294.784z"/>
							</g>
							<polygon style="opacity:0.2;enable-background:new    ;" points="409.625,290.53 416.283,286.846 413.089,278.251 
								406.432,281.935 							"/>
						</g>
						<g>
							<path style="fill:#407BFF;" d="M316.925,194.068c0,0-0.92,14.025,3.78,24.09c5.74,12.306,44.749,1.625,60.431,4.746
								c1.737,24.37,24.652,64.609,24.652,64.609l12.443-6.263c0,0-8.799-37.138-17.033-69.407
								c-2.755-24.195-57.795-19.977-58.124-19.95L316.925,194.068z"/>
							<path style="opacity:0.4;" d="M316.925,194.068c0,0-0.92,14.025,3.78,24.09c5.74,12.306,44.749,1.625,60.431,4.746
								c1.737,24.37,24.652,64.609,24.652,64.609l12.443-6.263c0,0-8.799-37.138-17.033-69.407
								c-2.92-25.826-66.242-20.187-66.571-20.16L316.925,194.068z"/>
						</g>
						<polygon style="fill:#407BFF;" points="402.02,282.319 418.186,275.188 419.993,281.543 404.803,289.958 						"/>
						<g>
							<g>
								<g id="Monitor_Screen">
									<g id="PC">
										<g>
											<polygon style="fill:#407BFF;" points="390.827,187.637 331.908,186.279 336.036,149.004 394.955,150.362 											"/>
											<path style="fill:#407BFF;" d="M389.949,190.542l-58.06-1.338c-1.647-0.038-2.835-1.401-2.653-3.045l4.103-37.042
												c0.182-1.644,1.665-2.945,3.312-2.908l58.061,1.338c1.647,0.038,2.835,1.401,2.653,3.045l-4.103,37.042
												C393.079,189.278,391.596,190.58,389.949,190.542z"/>
											<g style="opacity:0.5;">
												<polygon points="390.827,187.637 331.908,186.279 336.036,149.004 394.955,150.362 												"/>
												<polygon style="opacity:0.9;" points="390.827,187.637 331.908,186.279 336.036,149.004 394.955,150.362 												
													"/>
											</g>
											<polygon style="opacity:0.9;fill:#FFFFFF;" points="390.697,187.781 331.778,186.424 335.906,149.149 394.825,150.507 
																							"/>
											<g>
												<polygon style="fill:#407BFF;" points="387.618,161.037 376.8,160.788 377.472,154.715 388.291,154.964 												"/>
											</g>
											<g>
												<polygon style="fill:#407BFF;" points="386.292,173.016 375.473,172.767 376.146,166.694 386.964,166.943 												
													"/>
											</g>
											<g>
												<polygon style="fill:#407BFF;" points="384.965,184.995 374.146,184.746 374.819,178.673 385.637,178.922 												
													"/>
											</g>
											<g>
												<polygon style="opacity:0.1;fill:#FFFFFF;enable-background:new    ;" points="382.122,147.195 369.621,189.973 
													373.493,190.062 385.866,147.281 												"/>
												<polygon style="opacity:0.1;fill:#FFFFFF;enable-background:new    ;" points="388.096,147.333 375.596,190.111 
													383.275,190.288 395.648,147.507 												"/>
											</g>
											<polygon style="fill:#407BFF;" points="338.616,179.264 338.577,179.61 369.799,180.33 369.838,179.983 											"/>
											<polygon style="fill:#407BFF;" points="370.277,176.019 339.094,175.301 341.474,153.805 372.658,154.524 											"/>
											<path style="fill:#407BFF;" d="M339.753,183.812L339.753,183.812c-0.882-0.02-1.519-0.751-1.421-1.631l0,0
												c0.098-0.881,0.892-1.578,1.774-1.558l0,0c0.883,0.02,1.519,0.751,1.421,1.631l0,0
												C341.43,183.135,340.635,183.832,339.753,183.812z"/>
											<polygon style="fill:#407BFF;" points="354.393,178.302 338.801,177.943 338.953,176.569 354.545,176.928 											"/>
											<polygon style="fill:#407BFF;" points="369.419,183.586 363.395,183.447 363.547,182.073 369.571,182.212 											"/>
											<g>
												<polygon style="fill:#407BFF;" points="369.984,178.661 368.607,178.63 368.759,177.255 370.136,177.287 												
													"/>
												<polygon style="fill:#407BFF;" points="367.651,178.608 366.274,178.576 366.426,177.202 367.803,177.233 												
													"/>
												<polygon style="fill:#407BFF;" points="365.317,178.554 363.94,178.522 364.093,177.148 365.47,177.18 												"/>
											</g>
											<polygon style="opacity:0.2;fill:#FFFFFF;" points="354.393,178.302 338.801,177.943 338.953,176.569 354.545,176.928 
																							"/>
											<polygon style="opacity:0.2;" points="369.838,179.983 338.616,179.264 338.577,179.61 369.799,180.33 											"/>
										</g>
									</g>
								</g>
								<path style="fill:#407BFF;" d="M371.534,189.823l19.591,0.71c0.191,2.291-0.834,3.082-2.081,3.033l-6.265-0.244
									l-4.184-0.178l-6.504-0.234l-29.9-0.745l-0.137-2.857L371.534,189.823z"/>
								<path style="opacity:0.4;" d="M371.534,189.823l19.591,0.71c0.191,2.291-0.834,3.082-2.081,3.033l-6.265-0.244l-4.184-0.178
									l-6.504-0.234l-29.9-0.745l-0.137-2.857L371.534,189.823z"/>
							</g>
							<path style="opacity:0.2;" d="M391.125,190.533l0.066,0.798c0.103,1.235-0.9,2.284-2.148,2.235l-6.265-0.244l-11.637-0.332
								l0.393-3.166L391.125,190.533z"/>
						</g>
						<g>
							<path style="fill:#407BFF;" d="M309.019,124.222l19.101,1.652c0,0-2.141-4.873-8.926-5.361
								C312.409,120.025,309.019,124.222,309.019,124.222z"/>
							<g>
								<g>
									<path style="fill:#407BFF;" d="M296.699,157.319c1.368,14.998,1.677,30.285,3.833,38.475l4.618,1.033
										c8.087,1.81,16.498,1.562,24.464-0.721l13.431-3.849c-0.661-14.226-0.568-42.011-0.471-55.824
										c0.035-4.915-3.276-9.226-8.033-10.464c-1.333-0.347-2.514-0.632-3.236-0.759c-5.694-0.803-11.43-1.284-17.179-1.441
										c-3.019-0.1-6.115-0.043-8.586,0.162l-1.415,0.118c-2.142,0.178-5.465,2.462-6.046,4.517
										C295.683,137.023,295.879,148.316,296.699,157.319z"/>
									<g>
										<path style="fill:#407BFF;" d="M296.699,157.319c1.368,14.998,1.677,30.285,3.833,38.475l4.618,1.033
											c8.087,1.81,16.498,1.562,24.464-0.721l13.431-3.849c-0.661-14.226-0.568-42.011-0.471-55.824
											c0.035-4.915-3.276-9.226-8.033-10.464c-1.333-0.347-2.514-0.632-3.236-0.759c-5.694-0.803-11.43-1.284-17.179-1.441
											c-3.019-0.1-6.115-0.043-8.586,0.162l-1.415,0.118c-2.142,0.178-5.465,2.462-6.046,4.517
											C295.683,137.023,295.879,148.316,296.699,157.319z"/>
										<path style="opacity:0.7;fill:#FFFFFF;" d="M296.699,157.319c1.368,14.998,1.677,30.285,3.833,38.475l4.618,1.033
											c8.087,1.81,16.498,1.562,24.464-0.721l13.431-3.849c-0.661-14.226-0.568-42.011-0.471-55.824
											c0.035-4.915-3.276-9.226-8.033-10.464c-1.333-0.347-2.514-0.632-3.236-0.759c-5.694-0.803-11.43-1.284-17.179-1.441
											c-3.019-0.1-6.115-0.043-8.586,0.162l-1.415,0.118c-2.142,0.178-5.465,2.462-6.046,4.517
											C295.683,137.023,295.879,148.316,296.699,157.319z"/>
									</g>
									<path style="opacity:0.2;enable-background:new    ;" d="M322.069,135.792c-0.497,5.21-1.285,16.427,1.511,25.836
										l5.535,0.085c3.835,0.093,7.656-0.487,11.29-1.714l0,0c0,0,2.845-14.154-1.442-22.675
										C335.299,130.045,322.843,127.679,322.069,135.792z"/>
									<path style="fill:#7F3E3B;" d="M334.904,128.284c0.704,6.439,1.502,13.012,2.402,19.459
										c0.452,3.234,0.929,6.456,1.48,9.637c0.552,3.181,1.141,6.343,1.885,9.374c0.372,1.516,0.76,3.015,1.204,4.396
										c0.223,0.706,0.46,1.365,0.7,1.982c0.13,0.291,0.253,0.642,0.372,0.867l0.177,0.378c0.02,0.038,0.06,0.144,0.06,0.144
										c-0.055-0.098-0.122-0.189-0.2-0.27c-0.208-0.242-0.286-0.192-0.229-0.175c0.137,0.135,0.291,0.253,0.458,0.35
										c0.509,0.302,1.041,0.563,1.591,0.781c1.372,0.521,2.77,0.971,4.189,1.347c6.023,1.574,13.329,4.605,19.744,5.755
										l-0.222,5.705c-6.863,0.553-21.368-1.292-26.798-3.42c-1.04-0.274-2.057-0.631-3.041-1.068
										c-0.599-0.28-1.179-0.601-1.735-0.96c-1.058-0.671-1.955-1.567-2.626-2.625l-0.231-0.406l-0.404-0.73
										c-0.287-0.496-0.462-0.916-0.695-1.384c-0.411-0.91-0.79-1.79-1.109-2.662c-0.64-1.734-1.165-3.432-1.688-5.141
										c-1.82-6.624-3.251-13.349-4.285-20.14c-0.524-3.34-0.972-6.657-1.404-10.022c-0.004-0.034-0.009-0.067-0.013-0.101
										c-0.701-5.457,3.288-10.402,8.766-10.916L334.904,128.284z"/>
									<path style="fill:#7F3E3B;" d="M365.718,186.61c0.74,2.495,9.14,2.474,9.14,2.474l-0.322-7.908l-7.582,0.945
										L365.718,186.61z"/>
									<polygon style="fill:#7F3E3B;" points="374.536,181.176 374.858,189.085 379.912,190.133 378.941,184.543 									"/>
								</g>
								<path style="fill:#407BFF;" d="M322.509,132.738c-1.243,4.927,0.851,19.543,3.701,26.318l17.411-2.568
									c0,0,1.266-19.974-2.938-25.586C333.934,121.938,324.356,125.148,322.509,132.738z"/>
								<path style="opacity:0.3;fill:#FFFFFF;" d="M322.509,132.738c-1.243,4.927,0.851,19.543,3.701,26.318l17.411-2.568
									c0,0,1.266-19.974-2.938-25.586C333.934,121.938,324.356,125.148,322.509,132.738z"/>
							</g>
						</g>
					</g>
					<g>
						<path style="fill:#263238;" d="M418.656,292.634l-7.003,3.03c-0.317,0.126-0.487,0.471-0.394,0.799l2.099,10.534
							c0.232,0.723,1.007,1.121,1.73,0.889c0.05-0.016,0.099-0.035,0.147-0.057c3.027-1.347,4.426-2.148,8.289-3.785
							c2.367-1.003,10.081-2.969,13.031-4.959c2.951-1.99,1.132-5.016-0.275-4.452c-4.519,1.838-10.908,0.89-14.875-1.566
							C420.901,292.921,419.134,292.415,418.656,292.634z"/>
						<g>
							<path style="fill:#407BFF;" d="M422.557,296.517c0,0,0.046,0.053,0.071,0.084c0.378,0.182,0.823,0.155,1.176-0.07
								c0.234-0.114,0.388-0.346,0.403-0.607c0.083-1.135-2.543-3.088-2.804-3.286c-0.067-0.053-0.161-0.058-0.233-0.011
								c-0.069,0.044-0.108,0.123-0.101,0.205C421.254,293.988,421.657,295.97,422.557,296.517z M421.58,293.276
								c1.022,0.797,2.282,1.996,2.226,2.609c-0.013,0.117-0.089,0.217-0.198,0.261c-0.232,0.151-0.526,0.173-0.778,0.059
								c-0.504-0.267-0.995-1.32-1.231-2.906L421.58,293.276z"/>
							<path style="fill:#407BFF;" d="M421.453,293.174c0.939,0.592,2.947,1.219,3.742,0.75c0.292-0.187,0.417-0.549,0.304-0.877
								c-0.086-0.318-0.31-0.58-0.61-0.715c-1.151-0.609-3.563,0.292-3.665,0.327c-0.075,0.012-0.137,0.064-0.16,0.136
								c-0.007,0.074,0.022,0.147,0.077,0.197C421.241,293.059,421.346,293.12,421.453,293.174z M424.768,292.699
								c0.159,0.096,0.27,0.254,0.306,0.436c0.065,0.261-0.028,0.353-0.111,0.41c-0.53,0.334-2.247-0.107-3.19-0.657
								c0.822-0.254,2.231-0.589,2.932-0.215C424.724,292.686,424.745,292.695,424.768,292.699L424.768,292.699z"/>
						</g>
					</g>
					<g>
						<path style="fill:#263238;" d="M386.357,291.696l-7.178,2.476c-0.324,0.101-0.532,0.419-0.483,0.735l0.711,10.1
							c0.134,0.698,0.836,1.119,1.567,0.94c0.051-0.012,0.101-0.028,0.15-0.046c3.107-1.105,4.566-1.785,8.522-3.119
							c2.424-0.816,10.158-2.245,13.272-3.963c3.115-1.719,1.73-4.689,0.294-4.234c-4.617,1.486-10.699,0.228-14.24-2.324
							C388.499,292.095,386.849,291.516,386.357,291.696z"/>
						<g>
							<path style="fill:#407BFF;" d="M391.214,295.835c0,0,0.056,0.042,0.088,0.066c0.408,0.097,0.837-0.025,1.134-0.32
								c0.204-0.162,0.305-0.421,0.263-0.679c-0.163-1.127-3.146-2.471-3.443-2.609c-0.077-0.038-0.17-0.022-0.23,0.039
								c-0.058,0.058-0.079,0.143-0.055,0.222C389.398,293.644,390.217,295.494,391.214,295.835z M389.564,292.879
								c1.169,0.56,2.657,1.461,2.734,2.071c0.012,0.117-0.04,0.231-0.138,0.297c-0.194,0.198-0.476,0.282-0.747,0.224
								c-0.549-0.153-1.255-1.076-1.825-2.575L389.564,292.879z"/>
							<path style="fill:#407BFF;" d="M389.418,292.806c1.044,0.377,3.139,0.559,3.816-0.069c0.245-0.245,0.289-0.626,0.109-0.921
								c-0.152-0.292-0.427-0.5-0.749-0.568c-1.254-0.348-3.417,1.049-3.509,1.105c-0.07,0.027-0.12,0.092-0.127,0.167
								c0.01,0.074,0.053,0.139,0.117,0.177C389.187,292.74,389.302,292.776,389.418,292.806z M392.554,291.632
								c0.176,0.06,0.318,0.19,0.392,0.36c0.119,0.241,0.048,0.35-0.02,0.424c-0.446,0.44-2.218,0.377-3.256,0.042
								c0.748-0.424,2.053-1.054,2.818-0.838C392.509,291.629,392.532,291.633,392.554,291.632L392.554,291.632z"/>
						</g>
					</g>
				</g>
			</g>
			<path style="fill:none;stroke:#407BFF;stroke-miterlimit:10;" d="M412.667,215.327h-96.739c-4.933,0-8.932-3.999-8.932-8.932
				v-96.739c0-4.933,3.999-8.932,8.932-8.932h96.739c4.933,0,8.932,3.999,8.932,8.932v96.739
				C421.598,211.328,417.599,215.327,412.667,215.327z"/>
		</g>
		<g>
			<path style="fill:#407BFF;" d="M359.093,220.095l5.515-4.376l-0.622-0.783l-5.833,4.63
				C358.534,219.663,358.847,219.85,359.093,220.095z"/>
			<path style="fill:#407BFF;" d="M333.638,239.02l-32.559,25.839l0.622,0.783l32.536-25.821
				C333.972,239.604,333.775,239.328,333.638,239.02z"/>
			<path style="fill:#407BFF;" d="M337.742,237.04l17.786-14.115c-0.16-0.333-0.247-0.702-0.252-1.077l-18.094,14.359
				C337.433,236.439,337.621,236.723,337.742,237.04z"/>
		</g>
	</g>
</g>
<g id="Device_5">
	<g>
		<g>
			<g>
				<g>
					<g>
						<rect x="409.246" y="243.42" style="fill:#407BFF;" width="32.187" height="52.212"/>
						<rect x="409.246" y="243.42" style="opacity:0.4;" width="32.187" height="52.212"/>
					</g>
					<g>
						<g>
							<rect x="392.125" y="243.42" style="fill:#407BFF;" width="29.784" height="52.212"/>
							<rect x="392.125" y="243.42" style="opacity:0.7;fill:#FFFFFF;" width="29.784" height="52.212"/>
						</g>
						<g>
							<g>
								<rect x="393.848" y="245.777" style="fill:#407BFF;" width="26.339" height="6.584"/>
								<rect x="395.905" y="247.588" style="fill:#FFFFFF;" width="0.763" height="4.137"/>
								<rect x="398.838" y="247.588" style="fill:#FFFFFF;" width="0.762" height="4.137"/>
								<rect x="397.372" y="248.764" style="fill:#FFFFFF;" width="0.762" height="2.961"/>
								<g>
									<circle style="fill:#FFFFFF;" cx="412.28" cy="249.262" r="1.147"/>
									<circle style="fill:#FFFFFF;" cx="415.061" cy="249.262" r="1.147"/>
									<circle style="fill:#FFFFFF;" cx="417.842" cy="249.262" r="1.147"/>
								</g>
							</g>
							<g>
								<rect x="393.848" y="254.359" style="fill:#407BFF;" width="26.339" height="6.584"/>
								<rect x="395.905" y="256.17" style="fill:#FFFFFF;" width="0.763" height="4.137"/>
								<rect x="398.838" y="256.17" style="fill:#FFFFFF;" width="0.762" height="4.137"/>
								<rect x="397.372" y="257.346" style="fill:#FFFFFF;" width="0.762" height="2.961"/>
								<g>
									<circle style="fill:#FFFFFF;" cx="412.28" cy="257.844" r="1.147"/>
									<circle style="fill:#FFFFFF;" cx="415.061" cy="257.844" r="1.147"/>
									<circle style="fill:#FFFFFF;" cx="417.842" cy="257.844" r="1.147"/>
								</g>
							</g>
							<g>
								<rect x="393.848" y="262.942" style="fill:#407BFF;" width="26.339" height="6.584"/>
								<rect x="395.905" y="264.753" style="fill:#FFFFFF;" width="0.763" height="4.137"/>
								<rect x="398.838" y="264.753" style="fill:#FFFFFF;" width="0.762" height="4.137"/>
								<rect x="397.372" y="265.928" style="fill:#FFFFFF;" width="0.762" height="2.961"/>
								<g>
									<path style="fill:#FFFFFF;" d="M413.427,266.427c0,0.634-0.514,1.147-1.147,1.147c-0.634,0-1.147-0.514-1.147-1.147
										c0-0.634,0.514-1.147,1.147-1.147C412.914,265.279,413.427,265.793,413.427,266.427z"/>
									<path style="fill:#FFFFFF;" d="M416.208,266.427c0,0.634-0.514,1.147-1.147,1.147c-0.634,0-1.147-0.514-1.147-1.147
										c0-0.634,0.514-1.147,1.147-1.147C415.694,265.279,416.208,265.793,416.208,266.427z"/>
									<path style="fill:#FFFFFF;" d="M418.989,266.427c0,0.634-0.514,1.147-1.147,1.147c-0.634,0-1.147-0.514-1.147-1.147
										c0-0.634,0.514-1.147,1.147-1.147C418.475,265.279,418.989,265.793,418.989,266.427z"/>
								</g>
							</g>
							<g>
								<rect x="393.848" y="271.524" style="fill:#407BFF;" width="26.339" height="6.584"/>
								<rect x="395.905" y="273.335" style="fill:#FFFFFF;" width="0.763" height="4.137"/>
								<rect x="398.838" y="273.335" style="fill:#FFFFFF;" width="0.762" height="4.137"/>
								<rect x="397.372" y="274.511" style="fill:#FFFFFF;" width="0.762" height="2.961"/>
								<g>
									<circle style="fill:#FFFFFF;" cx="412.28" cy="275.009" r="1.147"/>
									<circle style="fill:#FFFFFF;" cx="415.061" cy="275.009" r="1.147"/>
									<circle style="fill:#FFFFFF;" cx="417.842" cy="275.009" r="1.147"/>
								</g>
							</g>
						</g>
					</g>
				</g>
				<path style="fill:#263238;" d="M410.824,286.587c0,1.962-1.591,3.553-3.553,3.553c-1.962,0-3.553-1.591-3.553-3.553
					c0-1.962,1.591-3.553,3.553-3.553C409.234,283.035,410.824,284.625,410.824,286.587z"/>
			</g>
			<g>
				<g>
					<defs>
						<path id="SVGID_00000165931697859551478320000014690271697336888511_" d="M449.415,311.234h-65.272
							c-4.933,0-8.932-3.999-8.932-8.932v-65.272c0-4.933,3.999-8.932,8.932-8.932h65.272c4.933,0,8.932,3.999,8.932,8.932v65.272
							C458.347,307.235,454.348,311.234,449.415,311.234z"/>
					</defs>
					<clipPath id="SVGID_00000128443847913126808130000011518063052044028551_">
						<use xlink:href="#SVGID_00000165931697859551478320000014690271697336888511_"  style="overflow:visible;"/>
					</clipPath>
					
						<use xlink:href="#SVGID_00000165931697859551478320000014690271697336888511_"  style="overflow:visible;fill:none;stroke:#407BFF;stroke-miterlimit:10;"/>
				</g>
				<g>
					<path style="fill:none;stroke:#407BFF;stroke-miterlimit:10;" d="M449.415,311.234h-65.272c-4.933,0-8.932-3.999-8.932-8.932
						v-65.272c0-4.933,3.999-8.932,8.932-8.932h65.272c4.933,0,8.932,3.999,8.932,8.932v65.272
						C458.347,307.235,454.348,311.234,449.415,311.234z"/>
				</g>
			</g>
		</g>
		<g>
			<path style="fill:#407BFF;" d="M328.239,292.696l-19.086,8.61l0.408,0.912l18.906-8.529
				C328.327,293.379,328.248,293.041,328.239,292.696z"/>
			<path style="fill:#407BFF;" d="M347.461,285.121l28.105-12.679l-0.408-0.912L347.3,284.097
				C347.422,284.421,347.475,284.771,347.461,285.121z"/>
			<path style="fill:#407BFF;" d="M343.148,285.97l-11.046,4.983c0.233,0.247,0.404,0.543,0.507,0.867l11.114-5.014
				C343.466,286.576,343.273,286.29,343.148,285.97z"/>
		</g>
	</g>
</g>
<g id="Cloud">
	<g>
		<g>
			<path style="fill:#407BFF;" d="M317.619,301.308c-0.197,0-0.392,0.013-0.589,0.015c0-0.005,0-0.01,0-0.015
				c0-38.529-31.234-69.764-69.764-69.764c-32.481,0-59.776,22.197-67.546,52.25c-29.469,1.919-52.78,26.414-52.78,56.367
				c0,31.205,25.297,56.502,56.502,56.502h134.176c26.332,0,47.678-21.346,47.678-47.678
				C365.297,322.654,343.951,301.308,317.619,301.308z"/>
			<path style="opacity:0.3;fill:#FFFFFF;" d="M317.619,301.308c-0.197,0-0.392,0.013-0.589,0.015c0-0.005,0-0.01,0-0.015
				c0-38.529-31.234-69.764-69.764-69.764c-32.481,0-59.776,22.197-67.546,52.25c-29.469,1.919-52.78,26.414-52.78,56.367
				c0,31.205,25.297,56.502,56.502,56.502h134.176c26.332,0,47.678-21.346,47.678-47.678
				C365.297,322.654,343.951,301.308,317.619,301.308z"/>
		</g>
		<ellipse style="opacity:0.1;" cx="246.119" cy="414.245" rx="119.178" ry="4.552"/>
		<g>
			<g>
				<path style="fill:#F5F5F5;" d="M257.603,350.433c-0.924,7.473-14.173,13.406-14.173,13.406s-13.248-5.933-14.173-13.406
					l-0.277-22.466l14.16-4.661l14.724,4.661L257.603,350.433z"/>
			</g>
			<g>
				<g>
					<g>
						<path style="fill:#407BFF;" d="M248.968,337.503v4.844c0,0.436-0.354,0.79-0.79,0.79c-0.436,0-0.79-0.354-0.79-0.79v-4.844
							c0-1.564-1.273-2.838-2.837-2.838h-1.733c-1.564,0-2.837,1.273-2.837,2.838v5.041H238.4v-5.041
							c0-2.436,1.982-4.418,4.418-4.418h1.733C246.986,333.085,248.968,335.067,248.968,337.503z"/>
					</g>
					<g>
						<g>
							<path style="fill:#407BFF;" d="M249.491,342.169v9.437c0,0.597-0.483,1.08-1.08,1.08h-9.437c-0.596,0-1.08-0.483-1.08-1.08
								v-9.437c0-0.385,0.203-0.725,0.507-0.915c0.166-0.104,0.363-0.165,0.574-0.165h9.437c0.205,0,0.395,0.057,0.558,0.155
								C249.282,341.434,249.491,341.777,249.491,342.169z"/>
						</g>
					</g>
				</g>
				<g style="opacity:0.3;">
					<g>
						<path style="fill:#FFFFFF;" d="M248.968,337.503v4.844c0,0.436-0.354,0.79-0.79,0.79c-0.436,0-0.79-0.354-0.79-0.79v-4.844
							c0-1.564-1.273-2.838-2.837-2.838h-1.733c-1.564,0-2.837,1.273-2.837,2.838v5.041H238.4v-5.041
							c0-2.436,1.982-4.418,4.418-4.418h1.733C246.986,333.085,248.968,335.067,248.968,337.503z"/>
					</g>
					<g>
						<g>
							<path style="fill:#FFFFFF;" d="M249.491,342.169v9.437c0,0.597-0.483,1.08-1.08,1.08h-9.437c-0.596,0-1.08-0.483-1.08-1.08
								v-9.437c0-0.385,0.203-0.725,0.507-0.915c0.166-0.104,0.363-0.165,0.574-0.165h9.437c0.205,0,0.395,0.057,0.558,0.155
								C249.282,341.434,249.491,341.777,249.491,342.169z"/>
						</g>
					</g>
				</g>
			</g>
		</g>
	</g>
</g>
<g id="Character">
	<g>
		<g>
			<g>
				<path style="opacity:0.2;" d="M207.347,294.159c0,0-6.217,4.56-1.202,16.656c6.761,16.306,61.381,2.298,61.381,2.298
					c-1.905,10.74,0.974,18.807,2.928,29.538l5.141,28.244l-5.44,0.607l2.207,7.905h5.294l0.567,6.658l0,0
					c-1.291,0.095-2.242,1.248-2.09,2.534l1.201,6.224l1.131,1.277l24.165-3.729l-16.91-6.31l-5.582-88.53L207.347,294.159z"/>
				<g>
					<path style="opacity:0.2;" d="M291.41,305.112h5.046c0,0-1.508,3.383,0.4,18.382c1.908,14.998,8.223,34.169,8.223,34.169
						h-4.511l1.208,8.256h4.404v7.043l0,0c-1.155,0.146-2.034,1.109-2.074,2.272l-0.156,4.512l3.179,2.028l19.538-1.566l2.4-1.543
						l-10.814-5.082l-7.311-77.525l-23.685,1.793L291.41,305.112z"/>
					<g>
						<g>
							<g>
								<g id="Character--inject-2_2_">
									<polygon style="fill:#FF8B7B;" points="311.05,374.724 319.606,373.792 320.414,353.678 311.85,354.616 									"/>
									<path style="fill:#263238;" d="M320.474,370.182l-9.666-0.094c-0.335-0.036-0.637,0.206-0.673,0.541
										c-0.002,0.02-0.004,0.041-0.004,0.061l-0.549,7.641c-0.006,0.837,0.66,1.524,1.497,1.545
										c3.36-0.026,4.769-0.192,9.014-0.451c2.612-0.169,8.845-0.586,12.399-1.255c3.553-0.668,2.783-4.164,1.219-4.197
										c-3.705-0.065-9.381-1.287-11.793-3.22C321.512,370.408,321.005,370.207,320.474,370.182z"/>
									<polygon style="opacity:0.2;enable-background:new    ;" points="311.848,354.628 320.414,353.678 320.024,363.372 
										311.47,364.021 									"/>
									<path style="fill:#407BFF;" d="M250.741,269.352c0,0,65.233-3.291,69.565,20.999c3.576,36.806,1.315,68.705,1.315,68.705
										l-11.676-0.946c0,0-9.866-38.81-8.912-59.531c-17.972-1.952-66.905,6.81-74.543-6.567
										c-6.248-10.915-5.09-17.714-5.09-17.714L250.741,269.352z"/>
									<path style="opacity:0.5;" d="M250.741,269.352c0,0,65.233-3.291,69.565,20.999c3.576,36.806,1.315,68.705,1.315,68.705
										l-11.676-0.946c0,0-9.866-38.81-8.912-59.531c-17.972-1.952-66.905,6.81-74.543-6.567
										c-6.248-10.915-5.09-17.714-5.09-17.714L250.741,269.352z"/>
									<polygon style="fill:#407BFF;" points="305.688,361.893 324.035,361.013 325.293,354.128 304.967,354.845 									"/>
									<path style="fill:#407BFF;" d="M325.127,371.274c0.276-0.286,0.377-0.699,0.264-1.081
										c-0.046-0.259-0.222-0.475-0.466-0.573c-1.061-0.441-3.496,1.216-3.771,1.403c-0.045,0.028-0.077,0.073-0.089,0.124
										c-0.024,0.106,0.043,0.212,0.149,0.236c0.748,0.199,1.516,0.31,2.29,0.332
										C324.082,371.773,324.659,371.616,325.127,371.274z M324.791,369.982c0.118,0.053,0.197,0.168,0.202,0.297
										c0.088,0.245,0.031,0.519-0.148,0.709c-0.405,0.395-1.538,0.438-3.073,0.114
										C322.771,370.476,324.211,369.768,324.791,369.982z"/>
									<path style="fill:#407BFF;" d="M321.391,371.339c0.86-0.509,2.166-2.277,1.973-3.232c-0.073-0.339-0.366-0.586-0.713-0.601
										c-0.326-0.052-0.657,0.056-0.889,0.29c-0.869,0.83-0.706,3.305-0.7,3.409c0.005,0.07,0.048,0.133,0.111,0.163
										c0.029,0.014,0.06,0.022,0.092,0.024L321.391,371.339z M322.537,367.898c0.297,0.037,0.36,0.179,0.384,0.293
										c0.128,0.619-0.736,1.967-1.495,2.592c-0.013-0.817,0.069-2.23,0.59-2.726c0.117-0.114,0.276-0.175,0.439-0.168
										C322.503,367.911,322.533,367.923,322.537,367.898z"/>
									<polygon style="fill:#FF8B7B;" points="285.325,386.221 293.646,385.996 292.989,365.812 284.668,366.038 									"/>
									<path style="fill:#263238;" d="M293.779,383.508l-9.639,0.628c-0.34,0.007-0.611,0.287-0.607,0.627l0.03,7.658
										c0.051,0.839,0.77,1.479,1.61,1.432c3.343-0.324,4.943-0.579,9.181-0.89c2.609-0.172,7.76-0.283,11.282-1.094
										c3.522-0.811,2.637-4.253,1.078-4.237c-3.703,0.061-8.875-2-11.426-3.746C294.839,383.597,294.309,383.464,293.779,383.508
										z"/>
									<path style="fill:#407BFF;" d="M298.506,384.241c0.252-0.309,0.318-0.729,0.173-1.1c-0.064-0.254-0.254-0.457-0.503-0.538
										c-1.073-0.365-3.393,1.484-3.653,1.69c-0.041,0.031-0.068,0.076-0.076,0.126c-0.017,0.108,0.056,0.209,0.164,0.226
										c0.761,0.136,1.535,0.188,2.307,0.155C297.499,384.822,298.066,384.621,298.506,384.241z M298.06,382.993
										c0.122,0.039,0.215,0.14,0.242,0.265c0.096,0.242,0.058,0.517-0.101,0.723c-0.338,0.421-1.499,0.542-3.053,0.341
										C296.099,383.617,297.482,382.806,298.06,382.993z"/>
									<path style="fill:#407BFF;" d="M294.808,384.635c0.82-0.567,1.979-2.484,1.722-3.361c-0.095-0.341-0.413-0.572-0.767-0.557
										c-0.328-0.04-0.654,0.086-0.87,0.337c-0.816,0.891-0.452,3.346-0.441,3.454c0.008,0.067,0.051,0.125,0.114,0.151
										c0.03,0.005,0.061,0.002,0.09-0.009C294.707,384.662,294.761,384.656,294.808,384.635z M295.699,381.075
										c0.29,0.017,0.385,0.152,0.396,0.268c0.176,0.605-0.59,2.015-1.299,2.698c-0.068-0.796-0.097-2.21,0.392-2.745
										c0.103-0.123,0.253-0.197,0.414-0.203L295.699,381.075z"/>
									<polygon style="opacity:0.2;enable-background:new    ;" points="283.923,365.847 293.223,364.279 293.309,376.89 
										285.162,377.848 									"/>
									<g>
										<path style="fill:#407BFF;" d="M230.034,272.842c0,0,64.413,4.736,65.291,23.451c4.778,30.578,1.239,70.827,1.239,70.827
											l-15.423,3.228c0,0-7.965-37.661-9.138-65.362c-15.764,2.658-48.195,7.58-59.319-0.294
											c-10.092-9.059-7.309-27.648-7.309-27.648L230.034,272.842z"/>
										<path style="opacity:0.4;" d="M230.034,272.842c0,0,64.413,4.736,65.291,23.451c4.778,30.578,1.239,70.827,1.239,70.827
											l-15.423,3.228c0,0-7.965-37.661-9.138-65.362c-15.764,2.658-48.195,7.58-59.319-0.294
											c-10.092-9.059-7.309-27.648-7.309-27.648L230.034,272.842z"/>
									</g>
									<polygon style="fill:#407BFF;" points="279.647,375.426 298.499,373.822 298.889,365.576 278.223,367.738 									"/>
									<path style="fill:#FF8B7B;" d="M234.493,216.84c0.366,1.468,0.699,2.742,1.097,4.078c0.398,1.335,0.793,2.599,1.239,3.944
										c0.864,2.587,1.844,5.154,2.922,7.769c2.154,5.414,5.033,10.512,8.557,15.153c1.037,1.296,2.182,2.501,3.422,3.604
										c1.389,1.246,2.957,2.277,4.651,3.06c3.25,1.448,6.823,2.021,10.363,1.66c3.099-0.316,6.127-1.134,8.964-2.422
										c1.341-0.595,2.644-1.271,3.903-2.024c0.63-0.37,1.237-0.764,1.826-1.219c0.588-0.454,1.143-0.839,1.82-1.363l-3.328-5.532
										l-1.656,0.498l-1.741,0.476c-1.17,0.298-2.329,0.557-3.516,0.757c-2.146,0.399-4.334,0.514-6.509,0.341
										c-1.74-0.119-3.424-0.664-4.904-1.587c-0.639-0.424-1.229-0.917-1.76-1.47c-0.659-0.717-1.268-1.479-1.823-2.279
										c-1.279-1.874-2.401-3.851-3.355-5.91c-1.051-2.127-1.987-4.383-2.877-6.692c-0.89-2.309-1.696-4.66-2.506-7.028
										l-1.141-3.578c-0.363-1.178-0.758-2.441-1.049-3.467L234.493,216.84z"/>
									<path style="fill:#407BFF;" d="M233.223,209.631c5.186-7.059,13.49-4.806,18.462,5.996
										c2.753,5.75,4.982,11.736,6.659,17.886l-19.037,7.399C233.9,230.721,227.885,216.87,233.223,209.631z"/>
									<path style="opacity:0.1;" d="M233.223,209.631c5.186-7.059,13.49-4.806,18.462,5.996
										c2.753,5.75,4.982,11.736,6.659,17.886l-19.037,7.399C233.9,230.721,227.885,216.87,233.223,209.631z"/>
									<path style="opacity:0.3;enable-background:new    ;" d="M241.648,220.872c-1.622-1.029-4.665,5.34-5.925,12.776
										c1.139,2.54,2.358,4.967,3.569,7.231l11.454-4.454C248.616,229.57,245.291,223.19,241.648,220.872z"/>
									<path style="fill:#FF8B7B;" d="M280.816,240.664l4.143-2.438l1.779,9.364c0,0-6.897,4.469-9.035,1.031l0.136-2.437
										C278.005,244.006,279.087,242,280.816,240.664z"/>
									<polygon style="fill:#FF8B7B;" points="290.227,237.593 294.168,245.035 286.703,247.596 284.924,238.232 									"/>
									<g>
										<path style="fill:#407BFF;" d="M232.941,203.476l-9.906-1.063l-12.247,1.482c-3.824,0.457-6.869,3.418-7.434,7.228
											c-1.117,7.475-1.514,18.034-1.593,27.128c-0.101,10.209,1.524,25.246,3.616,38.792l45.372-7.649
											c-3.719-28.383-2.944-45.664-2.923-55.158c0.02-3.826-2.516-7.195-6.198-8.236L232.941,203.476z"/>
									</g>
									<path style="opacity:0.3;enable-background:new    ;" d="M207.232,207.616c8.139-1.707,8.34,16.89,5.063,30.61
										c-0.948,3.97-5.66,2.478-7.27,1.503C199.755,236.54,197.264,213.886,207.232,207.616z"/>
									<g>
										<path style="fill:#FF8B7B;" d="M208.777,232.585c-1.538,7.905-4.986,11.42-1.43,15.01
											c3.556,3.591,26.307,17.559,27.146,16.671c-1.638,1.609-3.172,2.954-4.81,4.563c-6.851-2.73-13.733-5.383-20.644-7.959
											c-5.041-1.879-13.107-5.182-16.41-9.43c-2.989-3.845-0.313-12.023,2.522-21.293
											C198.929,228.99,208.777,232.585,208.777,232.585z"/>
									</g>
									<path style="fill:#407BFF;" d="M203.95,204.441c8.336-2.744,11.74,3.889,9.559,15.532
										c-1.081,6.282-2.73,12.452-4.925,18.436l-17.771-4.976C192.34,222.019,195.425,207.253,203.95,204.441z"/>
									<polygon style="fill:#263238;" points="230.167,217.248 230.496,257.824 236.692,263.118 240.413,257.185 232.664,217.248 
																			"/>
									<polygon style="fill:#263238;" points="230.189,217.248 232.664,217.248 233.842,215.065 232.237,214.174 230.496,214.016 
										228.652,215.057 									"/>
									<path style="fill:#263238;" d="M216.143,203.988c-0.245,1.759,0.413,3.549,1.434,5.002
										c1.021,1.454,2.385,2.625,3.734,3.781c1.714,1.468,3.75,3.033,5.976,2.665c2.057-0.34,3.208-1.42,3.96-3.906
										c1.866,2.791,1.995,4.209,3.944,4.325c1.264,0.075,2.332-0.882,3.186-1.817c1.508-1.653,2.175-2.596,2.387-4.823
										c0.345-3.624-2.695-6.875-6.147-8.031c-3.705-1.241-6.969-1.459-10.785-1.773
										C220.643,199.148,216.66,200.272,216.143,203.988z"/>
									<path style="fill:#FF8B7B;" d="M224.176,186.382l4.622,4.995l6.284,6.801c-0.535,0.763-0.928,1.616-1.16,2.518
										c-0.575,1.991-0.321,3.936,1.855,5.309c0.941,0.401,1.566,5.213-4.529,4.91c-4.15-0.092-6.817-1.444-9.319-3.88
										c-1.166-1.46-1.482-2.255-0.388-3.924C224.679,198.393,224.715,191.693,224.176,186.382z"/>
									<path style="opacity:0.2;enable-background:new    ;" d="M233.568,196.494l-3.982-4.93
										c-0.041,0.153-0.087,0.315-0.137,0.488c-0.159,0.719-0.261,1.448-0.306,2.183c-0.15,2.512,2.31,5.649,4.651,6.949
										l0.16-0.51c0.24-0.847,0.593-1.657,1.051-2.409c0.03-0.042,0.067-0.079,0.109-0.11L233.568,196.494z"/>
									<path style="fill:#263238;" d="M239.092,184.844c3.683-7.174,2.893-11.237,6.434-15.062
										c1.903-0.845,5.232,2.662,3.019,8.634S239.092,184.844,239.092,184.844z"/>
									<path style="fill:#FF8B7B;" d="M224.281,176.901c-0.419,8.323-1.022,13.17,2.694,17.762
										c5.617,6.95,16.245,4.083,19.109-3.996c2.582-7.266,2.763-19.648-4.992-23.669c-5.685-2.904-12.648-0.65-15.552,5.035
										C224.768,173.545,224.338,175.206,224.281,176.901z"/>
									<path style="fill:#263238;" d="M223.304,184.288l4.509,2.678l0.569-7.288l3.692-2.111l4.495-6.75
										c0,0-9.763-2.85-12.674-3.235c-1.019-0.135-4.589,2.64-5.117,3.807c-1.494,3.299-0.712,7.135,1.577,9.942
										C221.235,182.41,222.222,183.4,223.304,184.288z"/>
									<path style="fill:#FF8B7B;" d="M220.208,182.889c0.233,1.848,1.135,3.546,2.535,4.773c1.829,1.559,3.933-0.281,4.109-2.642
										c0.145-2.11-1.014-5.148-3.179-5.785C221.506,178.598,219.929,180.586,220.208,182.889z"/>
									<path style="fill:#263238;" d="M236.891,181.47c-0.104,0.682,0.166,1.311,0.617,1.39c0.451,0.079,0.844-0.397,0.993-1.078
										c0.149-0.681-0.166-1.311-0.618-1.399C237.431,180.295,236.993,180.779,236.891,181.47z"/>
									<path style="fill:#263238;" d="M244.602,182.902c-0.111,0.693,0.168,1.32,0.618,1.399s0.888-0.405,0.993-1.078
										c0.105-0.674-0.175-1.309-0.617-1.39C245.155,181.753,244.705,182.22,244.602,182.902z"/>
									<path style="fill:#FF5652;" d="M242.05,182.95c0.298,1.942,0.85,3.837,1.642,5.634c-1.221,0.698-2.846-0.185-2.846-0.185
										L242.05,182.95z"/>
									<path style="fill:#263238;" d="M239.63,192.311c-1.609-0.244-3.047-1.138-3.978-2.472
										c-0.061-0.096-0.033-0.222,0.061-0.284c0.099-0.055,0.223-0.024,0.285,0.07c1.035,1.438,2.681,2.312,4.452,2.365
										c0.114-0.005,0.21,0.084,0.214,0.198c0.004,0.114-0.085,0.21-0.199,0.214c-0.009,0-0.019,0-0.028-0.001
										C240.167,192.39,239.897,192.36,239.63,192.311z"/>
									<path style="fill:#263238;" d="M235.752,178.765c-0.066-0.019-0.127-0.056-0.173-0.107c-0.15-0.169-0.137-0.427,0.03-0.579
										c0.943-0.898,2.272-1.265,3.542-0.98c0.216,0.056,0.346,0.276,0.29,0.492c-0.001,0.005-0.003,0.01-0.004,0.015
										c-0.066,0.216-0.292,0.339-0.509,0.277c-0.998-0.204-2.033,0.093-2.771,0.795
										C236.05,178.784,235.892,178.817,235.752,178.765z"/>
									<path style="fill:#263238;" d="M245.329,178.463c-0.028-0.064-0.04-0.134-0.034-0.204c0.055-0.219,0.276-0.354,0.495-0.302
										c1.276,0.262,2.336,1.148,2.82,2.357c0.073,0.211-0.039,0.442-0.25,0.516c-0.212,0.073-0.442-0.038-0.516-0.25
										c-0.399-0.941-1.237-1.624-2.239-1.827C245.469,178.71,245.365,178.601,245.329,178.463z"/>
								</g>
								<g>
									<g>
										<g>
											<path style="fill:#407BFF;" d="M248.197,276.805l52.135-6.874c0.539-0.071,0.921-0.57,0.85-1.109l0,0
												c-0.071-0.539-0.57-0.921-1.109-0.85l-52.135,6.874c-0.539,0.071-0.921,0.57-0.85,1.109l0,0
												C247.159,276.494,247.658,276.876,248.197,276.805z"/>
											<path style="opacity:0.5;" d="M248.197,276.805l52.135-6.874c0.539-0.071,0.921-0.57,0.85-1.109l0,0
												c-0.071-0.539-0.57-0.921-1.109-0.85l-52.135,6.874c-0.539,0.071-0.921,0.57-0.85,1.109l0,0
												C247.159,276.494,247.658,276.876,248.197,276.805z"/>
											<path style="fill:#407BFF;" d="M222.501,276.536l25.296,0.284c0.544,0.006,0.993-0.434,0.999-0.977l0,0
												c0.006-0.543-0.434-0.992-0.977-0.999l-25.297-0.285c-0.543-0.006-0.993,0.434-0.998,0.977l0,0
												C221.518,276.081,221.957,276.53,222.501,276.536z"/>
											<path style="opacity:0.5;fill:#FFFFFF;" d="M222.501,276.536l25.296,0.284c0.544,0.006,0.993-0.434,0.999-0.977l0,0
												c0.006-0.543-0.434-0.992-0.977-0.999l-25.297-0.285c-0.543-0.006-0.993,0.434-0.998,0.977l0,0
												C221.518,276.081,221.957,276.53,222.501,276.536z"/>
											<g>
												<path style="fill:#407BFF;" d="M249.374,275.654l-27.849-0.181c0,0-0.938-0.551,0.934-0.913
													c1.872-0.362,26.044-3.583,26.044-3.583L249.374,275.654z"/>
												<path style="fill:#407BFF;" d="M249.374,275.654l-27.189-0.268c0,0-0.938-0.552,0.934-0.913
													c1.872-0.362,25.383-3.495,25.383-3.495L249.374,275.654z"/>
												<path style="opacity:0.2;fill:#FFFFFF;" d="M249.374,275.654l-27.189-0.268c0,0-0.938-0.552,0.934-0.913
													c1.872-0.362,25.383-3.495,25.383-3.495L249.374,275.654z"/>
											</g>
										</g>
										<g>
											<path style="fill:#407BFF;" d="M249.36,274.659l48.614-6.41c1.715-0.226,3.057-1.831,2.981-3.566l-1.092-24.9
												c-0.076-1.735-1.542-2.97-3.257-2.744l-48.614,6.409c-1.716,0.226-3.057,1.831-2.981,3.566l1.092,24.9
												C246.178,273.651,247.644,274.885,249.36,274.659z"/>
											<path style="opacity:0.4;" d="M249.36,274.659l48.614-6.41c1.715-0.226,3.057-1.831,2.981-3.566l-1.092-24.9
												c-0.076-1.735-1.542-2.97-3.257-2.744l-48.614,6.409c-1.716,0.226-3.057,1.831-2.981,3.566l1.092,24.9
												C246.178,273.651,247.644,274.885,249.36,274.659z"/>
										</g>
										<g>
											<path style="fill:#407BFF;" d="M250.776,274.365l48.614-6.41c1.715-0.226,3.057-1.831,2.981-3.566l-1.092-24.9
												c-0.076-1.735-1.542-2.97-3.257-2.744l-48.614,6.41c-1.716,0.226-3.057,1.831-2.981,3.566l1.092,24.9
												C247.594,273.356,249.06,274.591,250.776,274.365z"/>
											<path style="opacity:0.7;fill:#FFFFFF;" d="M250.776,274.365l48.614-6.41c1.715-0.226,3.057-1.831,2.981-3.566
												l-1.092-24.9c-0.076-1.735-1.542-2.97-3.257-2.744l-48.614,6.41c-1.716,0.226-3.057,1.831-2.981,3.566l1.092,24.9
												C247.594,273.356,249.06,274.591,250.776,274.365z"/>
										</g>
										<path style="fill:#407BFF;" d="M279.062,257.055c-0.166,2.37-2.221,4.291-4.591,4.291s-4.157-1.921-3.991-4.291
											c0.166-2.37,2.221-4.291,4.591-4.291S279.228,254.685,279.062,257.055z"/>
									</g>
								</g>
								<g>
									<path style="fill:#FF8B7B;" d="M237.379,263.839l4.15,0.521l-4.263,8.916c0,0-8.809-1.575-7.718-5.475l1.89-1.539
										C233.053,264.924,235.14,263.47,237.379,263.839z"/>
									<polygon style="fill:#FF8B7B;" points="245.953,269.262 242.66,273.879 237.265,273.267 241.529,264.36 									"/>
								</g>
							</g>
						</g>
					</g>
				</g>
				<g>
					<path style="fill:#407BFF;" d="M218.354,170.611c-0.739-1.372-1.488-2.771-1.782-4.301c-0.294-1.53-0.069-3.24,0.96-4.41
						c1.018-1.157,2.605-1.592,4.099-1.97c5.097-1.293,10.193-2.587,15.29-3.88c2.107-0.535,4.348-1.067,6.42-0.409
						c3.64,1.157,5.919,2.728,6.996,6.393c0.709,2.415,0.601,7.942-1.081,9.815c-1.283,1.428-3.41,1.645-5.328,1.719
						c-8.394,0.325-16.823-0.242-25.098-1.686L218.354,170.611z"/>
				</g>
				<path style="fill:#263238;" d="M227.291,172.934C227.227,173.462,227.355,172.405,227.291,172.934
					c2.411-3.276,7.777-6.027,10.17-6.352c3.927-0.533,8.085,0.41,11.239,2.808c3.155,2.398,5.205,6.276,5.145,10.238
					c-0.014,0.936-0.374,2.113-1.306,2.192c-0.846,0.072-1.286-1.738-1.791-2.421c-1.689-2.283-5.189-2.193-7.741-0.947
					c-1.337,0.653-2.665,1.83-4.099,1.432C237.931,179.614,227.291,172.934,227.291,172.934z"/>
			</g>
			<polygon style="fill:#263238;" points="214.956,222.214 227.673,222.214 227.673,225.55 222.383,228.304 215.316,226.208 			"/>
			<polygon style="fill:#263238;" points="237.342,222.214 248.078,222.214 248.078,225.55 243.612,228.304 237.646,226.208 			"/>
		</g>
		<g>
			<g>
				<g>
					<path style="fill:#263238;" d="M281.24,195.978c-0.55,0.55-1.16,0.83-1.78,0.92c-1.42,0.2-2.92-0.59-4.03-1.52
						c-0.08,0.25-0.18,0.51-0.3,0.76l-2.6-2.45l-2.6-2.45c0.25-0.14,0.49-0.25,0.74-0.35c-1.36-1.43-2.49-3.6-1.15-5.44
						c0.07-0.09,0.15-0.19,0.23-0.28c0.08-0.09,0.18-0.12,0.27-0.1c0.21,0.02,0.38,0.29,0.18,0.52c-1.51,1.69-0.1,3.85,1.2,5.1
						c0.81-0.17,1.61-0.13,2.3,0.16c0-0.01,0-0.02,0.01-0.03c0.93-1.25,1.17-2.63,0.05-3.69c-0.42-0.4-0.96-0.73-1.51-0.92
						c-0.1-0.03-0.06-0.19,0.04-0.15c0.72,0.24,1.42,0.69,1.89,1.28c0.89,1.11,0.49,2.43-0.35,3.57c0.04,0.02,0.08,0.03,0.12,0.05
						c0.16-0.29,0.46-0.5,0.81-0.52l-0.01,0.92l0.92-0.06c-0.01,0.34-0.2,0.65-0.48,0.83c0.02,0.03,0.04,0.07,0.06,0.11
						c1.09-0.89,2.4-1.36,3.57-0.54c0.61,0.44,1.1,1.11,1.39,1.81c0.04,0.1-0.12,0.14-0.16,0.05c-0.22-0.54-0.58-1.05-1-1.45
						c-1.12-1.05-2.5-0.74-3.71,0.25c0,0.01-0.01,0.01-0.02,0.01c0.32,0.67,0.41,1.46,0.29,2.28c1.12,1.04,2.92,2.12,4.43,1.43
						c0.26-0.12,0.51-0.29,0.75-0.52C281.09,195.258,281.54,195.688,281.24,195.978z"/>
					<path style="fill:#263238;" d="M272.526,193.687l-3.257-3.066c-0.294,0.162-0.582,0.351-0.862,0.559
						c-2.074-0.177-4.55,0.312-5.189,2.606c-0.112,0.402,0.505,0.526,0.617,0.123c0.476-1.711,2.243-2.163,3.865-2.132
						c-0.095,0.09-0.191,0.178-0.283,0.275c-2.348,2.464-2.679,5.942-0.739,7.768c1.94,1.826,5.417,1.31,7.765-1.154
						c0.119-0.125,0.23-0.253,0.338-0.383c0.158,1.653-0.16,3.542-1.916,4.128c-0.398,0.133-0.241,0.739,0.157,0.606
						c2.343-0.782,2.649-3.4,2.31-5.483c0.166-0.256,0.32-0.517,0.449-0.782L272.526,193.687z"/>
				</g>
				<g>
					<polygon style="fill:#263238;" points="288.074,210.357 283.655,210.357 284.351,205.938 288.77,205.938 					"/>
					<path style="fill:#263238;" d="M293.286,209.758c-0.076,0.481-0.322,0.918-0.67,1.246c-0.403,0.392-0.947,0.638-1.51,0.638
						h-11.08c-0.41,0-0.768-0.13-1.039-0.355c-0.425-0.338-0.647-0.897-0.548-1.529c0,0,5.205-1.611,5.833-1.611
						c0.624,0,3.934,0,3.934,0L293.286,209.758z"/>
					<g>
						<g>
							<path style="fill:#263238;" d="M294.49,199.538l-0.03,0.19c-0.09,0.58-0.61,1.02-1.19,1.02h-11.74
								c-0.32,0-0.59-0.13-0.78-0.34c-0.2-0.22-0.3-0.53-0.25-0.87h3.07c1.02-1.89,2.8-3.2,4.62-3.2c1.83,0,3.2,1.31,3.62,3.2
								H294.49z"/>
							<path style="fill:#263238;" d="M283.05,200.75c-0.12,0.35-0.21,0.73-0.27,1.11c-0.32,2.02,0.29,3.78,1.47,4.74
								c0.6,0.5,1.35,0.78,2.2,0.78c0.75,0,1.5-0.22,2.19-0.63c1.6-0.91,2.88-2.76,3.22-4.89c0.06-0.38,0.09-0.76,0.09-1.11H283.05z
								 M289.2,202.66l-2.03-0.93l-2.02,0.93l-1.12-1.45l3.14,0.49l3.14-0.49L289.2,202.66z"/>
						</g>
					</g>
				</g>
				<g>
					<path style="fill:#407BFF;" d="M269.753,185.172c-0.08,0.09-0.16,0.19-0.23,0.28c0.16-0.13,0.33-0.26,0.5-0.38
						C269.933,185.052,269.833,185.082,269.753,185.172z"/>
					<path style="fill:#407BFF;" d="M281.323,178.232c-11.66,0-21.81,9.49-22.63,21.15c-0.63,9.08,4.58,16.84,12.42,19.83
						c0.04,0.02,0.08,0.03,0.12,0.05c1.2,0.44,2.45,0.79,3.75,1h0.01c0.4,0.07,0.8,0.12,1.21,0.16c0.71,0.07,1.43,0.11,2.16,0.11
						c11.66,0,21.81-9.49,22.63-21.15C301.803,187.722,292.983,178.232,281.323,178.232z M261.893,199.382
						c0.39-5.62,3.34-10.64,7.63-13.93c0.07-0.09,0.15-0.19,0.23-0.28c0.08-0.09,0.18-0.12,0.27-0.1c3.17-2.29,7.01-3.64,11.07-3.64
						c2.93,0,5.65,0.71,8.01,1.96l-9.06,12.69c0.26-0.12,0.51-0.29,0.75-0.52c0.3-0.3,0.75,0.13,0.45,0.42
						c-0.55,0.55-1.16,0.83-1.78,0.92l-11.79,16.51C263.783,210.112,261.493,205.052,261.893,199.382z M297.793,199.382
						c-0.69,9.9-9.31,17.95-19.21,17.95c-3.08,0-5.92-0.78-8.36-2.16l10.53-14.76c-0.2-0.22-0.3-0.53-0.25-0.87h0.87l10.32-14.45
						C295.773,188.382,298.203,193.562,297.793,199.382z"/>
				</g>
				<g>
					<path style="fill:#407BFF;" d="M269.753,185.172c-0.08,0.09-0.16,0.19-0.23,0.28c0.16-0.13,0.33-0.26,0.5-0.38
						C269.933,185.052,269.833,185.082,269.753,185.172z"/>
					<path style="opacity:0.3;fill:#FFFFFF;" d="M281.323,178.232c-11.66,0-21.81,9.49-22.63,21.15
						c-0.63,9.08,4.58,16.84,12.42,19.83c0.04,0.02,0.08,0.03,0.12,0.05c1.2,0.44,2.45,0.79,3.75,1h0.01
						c0.4,0.07,0.8,0.12,1.21,0.16c0.71,0.07,1.43,0.11,2.16,0.11c11.66,0,21.81-9.49,22.63-21.15
						C301.803,187.722,292.983,178.232,281.323,178.232z M261.893,199.382c0.39-5.62,3.34-10.64,7.63-13.93
						c0.07-0.09,0.15-0.19,0.23-0.28c0.08-0.09,0.18-0.12,0.27-0.1c3.17-2.29,7.01-3.64,11.07-3.64c2.93,0,5.65,0.71,8.01,1.96
						l-9.06,12.69c0.26-0.12,0.51-0.29,0.75-0.52c0.3-0.3,0.75,0.13,0.45,0.42c-0.55,0.55-1.16,0.83-1.78,0.92l-11.79,16.51
						C263.783,210.112,261.493,205.052,261.893,199.382z M297.793,199.382c-0.69,9.9-9.31,17.95-19.21,17.95
						c-3.08,0-5.92-0.78-8.36-2.16l10.53-14.76c-0.2-0.22-0.3-0.53-0.25-0.87h0.87l10.32-14.45
						C295.773,188.382,298.203,193.562,297.793,199.382z"/>
				</g>
			</g>
			<path style="fill:#407BFF;" d="M276.579,218.03l-6.12,8.55l1.03-9.76C273.09,217.43,274.789,217.85,276.579,218.03z"/>
			<path style="opacity:0.3;fill:#FFFFFF;" d="M276.579,218.03l-6.12,8.55l1.03-9.76C273.09,217.43,274.789,217.85,276.579,218.03z"
				/>
		</g>
		<polygon style="fill:#F0F0F0;" points="288.22,201.71 288.17,201.73 288.12,201.71 288.17,201.7 		"/>
	</g>
</g>
</svg>
